<?xml version="1.0" encoding="UTF-8"?>
<svg width="128pt" height="128pt" version="1.1" viewBox="0 0 128 128" xmlns="http://www.w3.org/2000/svg">
 <path d="m41.734 39.695c0-0.76562 0.625-1.3906 1.3906-1.3906s1.3906 0.625 1.3906 1.3906c0 0.76563-0.625 1.3906-1.3906 1.3906-0.76562-0.003907-1.3906-0.625-1.3906-1.3906zm-18.414 36.609c5.5742 1.2344 10.43-3.6211 9.1953-9.1953-0.62109-2.8086-2.8906-5.0742-5.6953-5.6953-5.5742-1.2344-10.43 3.6211-9.1953 9.1914 0.62109 2.8125 2.8867 5.0781 5.6953 5.6992zm73.973 1.5859h-79.168c-0.38281 0-0.69531 0.3125-0.69531 0.69531v5.5547c0 0.38281 0.3125 0.69531 0.69531 0.69531h6.25v12.5h-2.082c-0.38281 0-0.69531 0.3125-0.69531 0.69531v1.3906c0 0.38281 0.3125 0.69531 0.69531 0.69531h8.332c0.38281 0 0.69531-0.3125 0.69531-0.69531v-1.3906c0-0.38281-0.3125-0.69531-0.69531-0.69531h-2.082v-12.5h58.336v12.5h-2.082c-0.38281 0-0.69531 0.3125-0.69531 0.69531v1.3906c0 0.38281 0.3125 0.69531 0.69531 0.69531h8.332c0.38281 0 0.69531-0.3125 0.69531-0.69531v-1.3906c0-0.38281-0.3125-0.69531-0.69531-0.69531h-2.082v-12.5h6.25c0.38281 0 0.69531-0.3125 0.69531-0.69531v-5.5547c-0.003907-0.38672-0.31641-0.69531-0.69922-0.69531zm-65.973-38.195c0-6.6758 5.5391-12.055 12.27-11.797 5.9688 0.22656 10.953 5.0859 11.32 11.047 0.39453 6.4023-4.3164 11.785-10.445 12.477-0.4375 0.050781-0.88281 0.082031-1.3359 0.082031-1.5117 0-2.9531-0.29688-4.2812-0.8125-4.4062-1.7227-7.5273-5.9883-7.5273-10.996zm12.496 2.6914c0.97266-0.23438 1.7656-1.0312 2.0039-2.0039 0.5-2.0664-1.3203-3.8867-3.3867-3.3867-0.97266 0.23438-1.7656 1.0312-2.0039 2.0039-0.5 2.0664 1.3203 3.8867 3.3867 3.3867zm73.598 52.168h-1.9844c-0.035157-0.13672-0.066407-0.27734-0.12109-0.41797l-10.371-26.059c-0.51172-1.1602-1.2578-1.8867-2.0859-2.293-0.59375-0.41016-1.3008-0.68359-2.1484-0.72266-26.324-2.4531-49.594-4.7656-56.727-0.96875l-0.57422 6.1289c-0.32031 2.5898-2.2891 3.7422-4.1016 3.7422-1.2695 0-2.4492-0.51562-3.2383-1.418-0.54297-0.62109-1.1445-1.707-0.92578-3.3633l0.67578-4.1523c-0.082031-0.023438-0.18359-0.007812-0.30078 0.035156-3.8086 2.9727-2.8242 11.309 2.9688 11.43 0 0 51.633-0.88281 60.828-1.0391 2.7852 5.3242 7.9297 15.148 10.086 19.273-0.17188 0.14062-0.28906 0.34375-0.28906 0.58203v4.0391c0 0.41797 0.33984 0.75781 0.75781 0.75781h10.375c0.74609 0 1.3633-0.60156 1.3672-1.3477 0.003906-2.3203-1.875-4.207-4.1914-4.207zm-78.684-43.176-2.207 13.57-0.70313 4.3242c-0.62109 4.6992 6.3086 5.5742 6.8867 0.88281l0.55859-5.9844 1.1289-12.059c-0.41797 0.042969-0.83984 0.074219-1.2695 0.074219-1.4961 0.007812-2.9727-0.26953-4.3945-0.80859zm-19.461 45.938h-4.2891v-48.492l1.3828-2.8789c0.14453-0.30469 0.015625-0.67187-0.28906-0.81641-0.30469-0.14453-0.67188-0.015625-0.81641 0.28906l-0.99609 2.0703h-1.7344v-4.2852c0-0.33984-0.27344-0.61328-0.61328-0.61328-0.33984 0-0.61328 0.27344-0.61328 0.61328v54.113h-4.2891c-0.33594 0-0.61328 0.27344-0.61328 0.60938v1.5742c0 0.33984 0.27344 0.61328 0.61328 0.61328h12.254c0.33984 0 0.61328-0.27344 0.61328-0.61328v-1.5742c0-0.33594-0.27344-0.60938-0.60938-0.60938z"/>
</svg>
