<?xml version="1.0" encoding="UTF-8"?>
<svg width="128pt" height="128pt" version="1.1" viewBox="0 0 128 128" xmlns="http://www.w3.org/2000/svg">
 <g>
  <path d="m96.668 18.18c-13.773 0-24.934 11.172-24.934 24.934 0 13.777 11.164 24.934 24.934 24.934 13.766-0.003906 24.934-11.16 24.934-24.934 0-13.762-11.168-24.934-24.934-24.934zm0 31.859c-3.8242 0-6.9258-3.1016-6.9258-6.9258s3.1016-6.9258 6.9258-6.9258c3.8281 0 6.9258 3.1016 6.9258 6.9258s-3.0977 6.9258-6.9258 6.9258z"/>
  <path d="m96.918 70.746c-5.8867 0-11.32-1.8711-15.812-5.0156l-19.227 11.316c1.8086-3.4844 2.9258-7.3828 2.9258-11.582 0-9.7852-5.6211-18.18-13.754-22.383 0.125-0.94922 0.28906-1.8945 0.28906-2.8945 0-12.406-10.055-22.473-22.473-22.473-12.41-0.003906-22.469 10.062-22.469 22.473 0 2.3164 0.81641 6.1797 1.9531 10.453-0.84766 6.0469-0.13672 13.934 2.8984 22.062 4.1914 11.219 11.562 19.621 17.637 22.598l0.53125 0.84375-0.015625 0.011719s3.5078 6.6211 3.9102 7.3633c1.957 3.625 6.2617 6.7695 12.484 6.7695 6.3047 0 12.793-3.2422 15.91-6.9375l37.27-32.184-0.34766-0.59766c-0.57422 0.039063-1.125 0.17578-1.7109 0.17578z"/>
 </g>
</svg>
