<?xml version="1.0" encoding="UTF-8"?>
<svg width="128pt" height="128pt" version="1.1" viewBox="0 0 128 128" xmlns="http://www.w3.org/2000/svg">
 <path d="m95.984 10.426c-0.71875 0.023438-1.3164 0.55859-1.4219 1.2695h0.003906c-0.015625 0.10156-0.10156 0.17188-0.19531 0.17188-0.42578 0.011718-0.82422 0.19922-1.1016 0.52344-0.27344 0.32031-0.39844 0.74609-0.34375 1.1641 0.015625 0.10937-0.019531 0.21875-0.09375 0.30469-0.070312 0.085937-0.17969 0.13672-0.28906 0.13672-0.44922 0.011718-0.87109 0.21875-1.1445 0.57422-0.27344 0.35547-0.37891 0.80859-0.28125 1.25 1.1602 5.1719 4.3047 9.6797 8.7617 12.555 0.28516 0.18359 0.58984 0.33594 0.91016 0.45312l5.5664 1.9961c0.39062 0.14062 0.75391 0.33594 1.0898 0.57812 0.46875 0.33594 1.0039 0.57031 1.5742 0.67969 0.85156-0.25391 1.5312-0.89844 1.8281-1.7383 1.1133-2.3281 1.5703-4.9219 1.3086-7.4883-0.035156-0.38672-0.125-0.76172-0.25391-1.1211-1.7539-4.6953-5.6094-8.2891-10.414-9.7188-1.6602-0.68359-3.3867-1.2109-5.1484-1.5664-0.11328-0.023438-0.23438-0.035157-0.35547-0.03125zm-4.6953 10.227c-3.6094 3.1016-4.0586 8.5234-1.0039 12.18l5.6641-5.6289c-1.9805-1.8516-3.5664-4.0781-4.6602-6.5508zm-23.262 1.9805v-0.003906c-12.746-0.054687-24.625 6.4492-31.438 17.227-1.4258 2.2891-0.92578 5.2812 1.1641 6.9844l21.41 17.5-1.4883 29.625h-0.003906c-0.10547 2.2539 1.6289 4.1758 3.8867 4.2852 2.2539 0.11328 4.1758-1.6211 4.2891-3.875l1.7344-34.594-15.5-15.164 0.003907 0.003906c6.0664-5.1133 14.121-7.2109 21.91-5.6992l0.83594 10.746c0.14453 1.9219 1.5117 3.5352 3.3789 4.0039l19.156 4.7734c1.8438 0.39844 3.6758-0.73828 4.1289-2.5703 0.45312-1.8359-0.625-3.6953-2.4453-4.2109l-17.043-4.2539v-18.184c-0.56641-3.6445-3.625-6.3867-7.3086-6.5469h-4.8945c-0.58984-0.03125-1.1797-0.050782-1.7695-0.050782zm29.051 5.5547-5.7461 5.7031v-0.003906c1.9688 1.6719 4.5742 2.375 7.1211 1.9336 2.5391-0.44531 4.7539-1.9961 6.0469-4.2305l-4.7969-1.7266v0.003907c-0.32031-0.12109-0.625-0.26953-0.91016-0.46094-0.59375-0.37891-1.1641-0.78906-1.7148-1.2305zm-72.875 4.0547v-0.003907c-0.41016 0-0.74609 0.33594-0.74609 0.74609s0.33594 0.74609 0.74609 0.75h7.0234c0.41016-0.003906 0.74609-0.33984 0.74609-0.75s-0.33594-0.74609-0.74609-0.74609zm-11.02 4.3203c-0.41016 0-0.73828 0.33594-0.73828 0.74609 0 0.41406 0.32813 0.75 0.73828 0.75h15.539c0.41016 0 0.74609-0.33594 0.74609-0.75 0-0.41016-0.33594-0.74609-0.74609-0.74609zm5.3945 4.6211c-0.41016 0-0.73828 0.33594-0.73828 0.74609 0 0.41406 0.32812 0.74609 0.73828 0.75h7.0195c0.41406-0.003907 0.74609-0.33594 0.74609-0.75 0-0.41016-0.32812-0.74609-0.74609-0.74609zm88.172 6.5117c-0.53516 0-1.0469 0.23047-1.3945 0.63672-1.0859 1.25-2.4453 2.2344-3.9766 2.875 0.98438 0.80859 1.625 1.9688 1.7812 3.2383 1.9062-0.85937 3.6055-2.125 4.9766-3.6992 0.47656-0.54688 0.58984-1.3164 0.28906-1.9688-0.30078-0.66016-0.94922-1.0781-1.6758-1.0781zm-75.059 3.9609c-1 0.039062-1.7734 0.88672-1.7344 1.8867 0.046875 1 0.89062 1.7734 1.8906 1.7344l12.48-1.125-2.6133-2.1445-9.9688-0.35156zm8.7969 4.3398-4.1094 0.37109 4.3398 6.9141-2.9648 7.1211v-0.003906c-6.4258-2.2812-13.512-1.7539-19.531 1.4453-6.0195 3.1992-10.414 8.7852-12.113 15.387-1.7031 6.6016-0.55469 13.609 3.1641 19.32 3.7148 5.7148 9.6641 9.6016 16.391 10.715 6.7266 1.1094 13.605-0.64844 18.969-4.8594 5.3594-4.2031 8.7031-10.477 9.2266-17.27h2.4062c-0.074219-0.41016-0.10156-0.82422-0.078125-1.2383l0.125-2.4414h-2.4531c-0.62891-8.2734-5.4336-15.656-12.75-19.574l2.0039-4.8008 13.355 21.25 0.32031-6.3984-10.762-17.125 9.7695-1.2852-3.9102-3.1953-8.0117 1.0508zm42.078 0.30469-14.469 1.8984 1.0156 0.99609-0.13672 2.6016 23.332-3.0586zm5.5352 4.4883-6.3906 0.83594-13.691 19.219-0.34375 6.8203 17.02-23.895 0.003907-0.003906c0.35547 2.8281 0.92578 5.6289 1.6992 8.375-7.3594 4.1641-12.02 11.859-12.309 20.316-0.28516 8.4492 3.8438 16.445 10.906 21.105 7.0586 4.6562 16.035 5.3047 23.691 1.7148 7.6602-3.5898 12.898-10.906 13.836-19.309 0.9375-8.4062-2.5703-16.695-9.2539-21.879-6.6797-5.1836-15.574-6.5195-23.492-3.5312-0.85938-3.1953-1.4219-6.4648-1.6758-9.7695zm-58.742 12.691c2.2656-0.03125 4.5156 0.32812 6.6602 1.0586l-6.0195 14.445c-1.6055-0.14062-3.1562 0.625-4.0195 1.9805-0.86328 1.3555-0.90625 3.0781-0.10156 4.4766 0.80078 1.3945 2.3086 2.2305 3.9219 2.1641 1.6094-0.066407 3.0469-1.0195 3.7305-2.4766h15.82c-0.47656 5.1094-2.9141 9.8359-6.8086 13.18-3.8906 3.3438-8.9297 5.0508-14.055 4.7539-5.1211-0.29688-9.9297-2.5664-13.414-6.3359-3.4805-3.7695-5.3594-8.7461-5.25-13.879 0.11328-5.1289 2.2148-10.016 5.8594-13.629 3.6445-3.6094 8.5508-5.6719 13.68-5.7383zm68.719 0h0.39062c6.4141 0.039062 12.41 3.1836 16.094 8.4336s4.5938 11.961 2.4492 18.004c-2.1445 6.0391-7.0859 10.676-13.25 12.426-6.1719 1.7539-12.809 0.41406-17.809-3.6016-5.0039-4.0156-7.7539-10.199-7.3867-16.602 0.375-6.4062 3.8203-12.23 9.2539-15.641 1.8281 4.9141 4.3281 9.5469 7.4297 13.77-1.3984 1.4336-1.625 3.6445-0.54688 5.3359 1.0742 1.6914 3.1758 2.4141 5.0664 1.7539s3.0781-2.5352 2.8711-4.5312c-0.20312-1.9883-1.7617-3.5781-3.7461-3.8281-3.3008-4.3008-5.9219-9.0742-7.7695-14.164 2.2148-0.86328 4.5703-1.3242 6.9492-1.3594zm-58.016 4.7617c3.9688 2.7539 6.6914 6.9648 7.5703 11.715h-12.449z"/>
</svg>
