<?xml version="1.0" encoding="UTF-8"?>
<svg width="128pt" height="128pt" version="1.1" viewBox="0 0 128 128" xmlns="http://www.w3.org/2000/svg">
 <g>
  <path d="m38.223 37.824c-2.5586-1.9727-4.5586-4.1719-4.082-7.7578h-0.003906c0.16797-1.0391-0.34766-2.0664-1.2773-2.5586-1.0469-0.64062-2.3633-0.65234-3.418-0.027343-0.92188 0.54688-1.4258 1.5898-1.2812 2.6523v15.832 15.949c0 1.0234-0.28125 1.2812-1.2812 1.0742-5.0977-0.67188-10.129 1.6484-12.926 5.9648-1.2227 1.9023-1.4805 4.2656-0.70312 6.3867 0.78125 2.1211 2.5078 3.7578 4.6719 4.418 3.5625 1.2656 7.5117 0.85156 10.738-1.1289 3.6602-1.7578 5.8867-5.5586 5.6328-9.6094-0.16797-4.5312 0-9.0742 0-13.605v-6.1328c0-0.62891 0.11328-1.0742 0.91016-0.74219 4.4922 1.9219 8.293 4.6328 10.395 9.2539h-0.003906c0.28906 0.67969 0.625 1.3398 1.0117 1.9688 0.65234 0.94531 1.4961 0.92188 2.1758 0 0.45703-0.67969 0.74609-1.4609 0.84375-2.2773 0.87109-5.4141-0.89453-10.023-4.3516-14.078-2.0625-2.332-4.7227-3.7266-7.0508-5.582z"/>
  <path d="m115.2 51.879c-0.34375-3.3477-1.7266-6.5039-3.9531-9.0234-0.53516-0.60547-1.1055-1.1758-1.7031-1.7148-0.60938-0.52734-1.25-1.0156-1.9219-1.4609-1.1797-0.80859-2.4258-1.5195-3.7227-2.125-2.3477-1.0664-4.7734-1.9414-7.2578-2.625 0 0-15.258-4.0078-19.277-5.1836-1.9844-0.61328-3.9297-1.2812-5.6719-2.0078-1.7617-0.77344-3.4727-1.6641-5.1172-2.6641-5.8438-3.6289-10.617-8.75-13.824-14.836-0.8125-2.1172-3.1875-3.1836-5.3086-2.3711-2.1172 0.80859-3.1836 3.1836-2.3711 5.3047 2.3945 8.6484 7.6484 16.23 14.898 21.516 2.0703 1.5469 4.2773 2.8984 6.5898 4.0469 1.6914 0.82031 3.3281 1.5117 4.9648 2.125-0.74219 5.1211 2.2539 15.656 2.2539 15.656 1.5117 5.4141 2.2539 7.0898 1.2812 10.113-1.3945 4.4688-5.1211 7.6797-9.1758 9.7148-4.8242 2.4336-7.8086 5.4258-9.5352 10.738l-0.003906-0.003906c-1.2852 4.6797-1.9922 9.4961-2.0977 14.348-0.28906 3.5586-0.28906 7.1328 0 10.688 0.070312 1.3945 0.35938 2.7695 0.85938 4.0742 0.55859 1.332 1.6523 2.3711 3.0195 2.8516 2.2461 0.48438 4.5469-0.55469 5.6719-2.5586 1.0703-1.9727 1.6914-4.1602 1.8164-6.4023 0.46094-3.5469 0.93359-7.0898 1.3828-10.637 0.35938-2.5586 0.76953-5.3906 2.4688-7.4102 1.9844-2.3555 5.2617-3.125 8.332-3.5195l1.1914-0.17969c0.078125 0.42188 0.17969 0.87109 0.33203 1.4453 1.6914 6.5312 3.9531 12.902 6.7578 19.035 1.418 3.1133 2.9609 6.1523 4.6328 9.1133 1.4727 2.6367 2.8945 5.6953 6.0156 6.6445 3.6211 1.0898 6.6289-3.8398 5.6445-6.8359-2.8789-8.9609-8.4102-25.281-10.406-31.32h0.003906c-0.44141-1.2969-0.042969-2.7266 0.99609-3.6094l0.48828-0.42188c3.1602-2.9297 4.3008-7.1289 4.5938-11.301v-0.003906c0.38672 1.3242 0.99219 2.5742 1.793 3.6992 0.75391 1.1602 2.1094 1.7773 3.4805 1.5898 1.3711-0.19141 2.5078-1.1523 2.918-2.4727 0.27344-0.87109 0.23047-1.8086-0.125-2.6484-0.19141-0.50391-0.28906-1.0391-0.29688-1.5742-0.011718-1.1992 0.51562-2.3438 1.4336-3.1133 1.1016-1.2812 2.9805-2.5586 4.9297-4.9648 1.0664-1.332 1.8828-2.8438 2.4062-4.4688 0.55078-1.6914 0.75781-3.4727 0.61328-5.2461zm-9.8438 2.5586c-0.10938 0.55859-0.33203 1.0898-0.65234 1.5625-0.76953 1.2812-2.4453 2.7656-4.1719 5.1211-0.41016 0.53906-0.78125 1.1094-1.1133 1.7031-0.21484 0.35938-0.625 0.55469-1.043 0.49219-0.41406-0.066406-0.74609-0.37891-0.83984-0.78906-1.6133-7.6797 0.43359-12.34 1.2812-13.863l0.34375-0.5625c0.28906 0.035157 0.56641 0.12109 0.82031 0.25781 0.79297 0.30859 2.418 1.0117 3.1992 1.4219l0.16797 0.10156c0.94141 0.83203 1.6172 1.9219 1.9453 3.1367 0.09375 0.48438 0.097656 0.98438 0.011719 1.4688z"/>
  <path d="m87.961 26.805c6.0859 1.2617 12.109-2.3945 13.801-8.3711 0.94531-3.1406 0.53906-6.5312-1.1211-9.3594-1.6562-2.8281-4.4219-4.8359-7.6211-5.543-6.1875-1.5156-12.449 2.2031-14.082 8.3594-0.92188 3.1797-0.46875 6.6016 1.2461 9.4336 1.7109 2.832 4.5352 4.8203 7.7773 5.4805z"/>
 </g>
</svg>
