<?xml version="1.0" encoding="UTF-8"?>
<svg width="128pt" height="128pt" version="1.1" viewBox="0 0 128 128" xmlns="http://www.w3.org/2000/svg">
 <path d="m111.13 57.945h-5.3359c-2.7266 0-4.9805 5.9531-5.2852 13.633h-6.6445c-0.35938-0.91016-1.0625-1.625-1.9727-1.9844 1.0625-2.8555 2.1367-6.8594 2.2656-9.5352 0.24219-4.6836-0.66406-8.7695-2.1758-10.586 0.53906-2.5586-0.19141-6.8242-2.0977-11.148-2.3438-5.3125-5.6836-8.9453-7.9609-8.8945l-12.762-2.3164c3.1875-1.8672 5.3242-5.3125 5.3242-9.2656 0-5.9258-4.8125-10.738-10.738-10.738-5.9258 0-10.738 4.8125-10.738 10.738 0 3.9688 2.1523 7.4102 5.3516 9.2812l-12.637 2.3125c-2.2773-0.21875-5.707 3.4414-8.1133 8.8711-1.9062 4.3281-2.6367 8.6016-2.0977 11.148-1.5117 1.8164-2.418 5.9023-2.1758 10.586 0.14062 2.6641 1.2148 6.6797 2.2656 9.5352-0.89453 0.35938-1.6133 1.0742-1.9727 1.9844h-6.1445c-0.32031-7.6797-2.5586-13.633-5.2852-13.633h-5.3359c-2.9453 0-5.3359 6.9375-5.3359 15.488s2.3945 15.488 5.3359 15.488h5.3359c2.7266 0 4.9805-5.9531 5.2852-13.633h6.1445c0.51172 1.3047 1.7773 2.2383 3.2773 2.2383h1.7031c1.4844 0 2.7539-0.93359 3.2773-2.2383h5.875c-0.40234 0.75391-0.79688 1.5234-1.168 2.3164-2.918 6.2852-3.5195 12.34-1.8945 15.641-1.2031 3.1602-1.957 7.1562-1.7656 10.828 0.21875 3.918 1.7266 8.6133 3.5859 12.199h-4.4023c-1.6016 0-2.8945 1.293-2.8945 2.8945v0.74219c0 1.6016 1.293 2.8945 2.8945 2.8945h9.2539c1.6016 0 2.8945-1.293 2.8945-2.8945v-0.74219c0-0.21875-0.027344-0.43359-0.078125-0.64062 0.98438-3.8398 0.97266-10.293 0.70312-15.281-0.17969-3.2383-0.61328-6.6562-1.3047-9.4844 2.9805-2.2031 6.0039-6.043 8.1914-10.766 1.2422-2.6641 2.0625-5.3008 2.4688-7.6914h0.0625c0.41016 2.3945 1.2305 5.0195 2.4688 7.6914 2.1875 4.7227 5.2227 8.5625 8.1914 10.766-0.70312 2.8281-1.125 6.2461-1.3047 9.4844-0.26953 4.9922-0.28125 11.43 0.70313 15.281-0.050782 0.20312-0.078126 0.42188-0.078126 0.64062v0.74219c0 1.6016 1.293 2.8945 2.8945 2.8945h9.2539c1.6016 0 2.8945-1.293 2.8945-2.8945v-0.74219c0-1.6016-1.293-2.8945-2.8945-2.8945h-4.3906c1.8555-3.5859 3.3672-8.293 3.5859-12.199 0.20313-3.6719-0.55078-7.6797-1.7656-10.828 1.625-3.2891 1.0234-9.3555-1.8945-15.641-0.37109-0.79297-0.76953-1.5469-1.1758-2.293h4.8242c0.51172 1.3047 1.7773 2.2383 3.2773 2.2383h1.7031c1.4844 0 2.7539-0.93359 3.2773-2.2383h6.6445c0.32031 7.6797 2.5586 13.633 5.2852 13.633h5.3359c2.9453 0 5.3359-6.9375 5.3359-15.488 0-8.5508-2.4062-15.5-5.3516-15.5zm-46.848 11.16v0 0zm-42.125 13.723c-1.625 0-2.9297-4.2109-2.9297-9.3945 0-5.1953 1.3203-9.3945 2.9297-9.3945 1.4219 0 2.6094 3.2383 2.8789 7.5391h-1.832c-1.0117 0-1.832 0.82031-1.832 1.832v0.0625c0 1.0117 0.82031 1.832 1.832 1.832h1.832c-0.28125 4.2852-1.457 7.5234-2.8789 7.5234zm19.738-11.262c-0.24219-0.61328-0.64062-1.125-1.1641-1.5234 0.85938-2.8789 1.6367-7.5508 1.4844-10.574-0.17969-3.5195-0.98438-6.6289-2.0859-8.6406 1.8672-1.4336 3.918-4.25 5.5156-7.8594 0.027344-0.0625 0.050781-0.11328 0.078125-0.17969l8.5742 11.211v12.098c0 0.34375 0.0625 0.66406 0.17969 0.97266-1.4609 1.1406-2.9297 2.6641-4.3008 4.4805h-8.2812zm31.742-4.8281c0.039062-0.20312 0.0625-0.41016 0.0625-0.62891l0.003906-13.066 8.0625-10.293c0.039063 0.078125 0.0625 0.15234 0.089844 0.23047 1.6016 3.6094 3.6484 6.4375 5.5156 7.8594-1.1016 2.0078-1.9062 5.1055-2.0859 8.6406-0.15234 3.0195 0.64062 7.6914 1.4844 10.574-0.51172 0.38281-0.92188 0.91016-1.1641 1.5234h-7.2188c-1.5117-2.0234-3.1367-3.6758-4.75-4.8398zm37.441 16.09c-1.625 0-2.9297-4.2109-2.9297-9.3945 0-5.1953 1.3203-9.3945 2.9297-9.3945 1.625 0 2.9297 4.2109 2.9297 9.3945 0 5.1953-1.3164 9.3945-2.9297 9.3945z"/>
</svg>
