<?xml version="1.0" encoding="UTF-8"?>
<svg width="128pt" height="128pt" version="1.1" viewBox="0 0 128 128" xmlns="http://www.w3.org/2000/svg">
 <g>
  <path d="m70.473 34.348c6.625 0 12-5.3711 12-12 0-6.625-5.375-12-12-12-6.6289 0-12 5.375-12 12 0 6.6289 5.3711 12 12 12z"/>
  <path d="m45.121 30.859c4.2695 1.1445 6.8008 5.5312 5.6562 9.7969l-6.2109 23.184c-1.1445 4.2656-5.5312 6.8008-9.7969 5.6562-4.2695-1.1445-6.8008-5.5312-5.6562-9.7969l6.2109-23.184c1.1445-4.2695 5.5312-6.8008 9.7969-5.6562z"/>
  <path d="m75.906 43.07c-1.4922-2.9102-4.1641-5.2031-7.5703-6.1172-6.4023-1.7148-12.984 2.0859-14.699 8.4883l-4.0977 15.289c-0.82812 3.0859-0.38672 6.3789 1.2188 9.1406l1.5938 2.7344-0.015624 0.007812 24.77 42.879c1.6562 2.8672 5.3242 3.8516 8.1953 2.1953 2.8711-1.6602 3.8516-5.3281 2.1953-8.1992l-17.879-30.953 4.0898-15.273 1.3594 2.3516c1.3477 2.3359 3.8398 3.7773 6.5391 3.7773h10.363v47.102l0.03125 0.35937c0.17188 0.93359 0.98828 1.6406 1.9688 1.6406 1.1055 0 2-0.89844 2-2v-47.289c2.5938-0.66406 4.5117-3.0156 4.5117-5.8125 0-2.8008-1.918-5.1523-4.5117-5.8164v-9.082l-0.03125-0.35938c-0.17188-0.93359-0.98828-1.6406-1.9688-1.6406-1.1055 0-2 0.89453-2 2v8.8945h-7.7969z"/>
  <path d="m52.242 80.445 8.2344 14.25c-0.58203 1.4062-1.2656 2.7695-2.043 4.082l-9.9375 16.773c-1.6914 2.8477-5.3711 3.7891-8.2227 2.1016-2.8516-1.6914-3.793-5.3711-2.1016-8.2227l10.203-17.223c0.71094-1.1992 1.2617-2.4844 1.6367-3.8242z"/>
 </g>
</svg>
