<?xml version="1.0" encoding="UTF-8"?>
<svg width="128pt" height="128pt" version="1.1" viewBox="0 0 128 128" xmlns="http://www.w3.org/2000/svg">
 <g>
  <path d="m119.28 50.559c-1.5234-4.1328-6.1328-6.2461-10.266-4.7227l-11.547 4.2617-5.3633-10.188c0-0.19141-0.027344-0.37109-0.027344-0.58984 0.050781-0.050781 0.12891-0.10156 0.15234-0.19141 0.078125-0.32031 2.1367-7.707 1.0625-14.527-0.027344-0.15234-0.10156-0.26953-0.19141-0.37109 1.9219-2.3164 3.0977-5.3125 3.0977-8.5625 0-7.3594-5.9766-13.336-13.336-13.336-7.3438 0.011719-13.32 5.9883-13.32 13.348 0 7.3594 5.9766 13.34 13.336 13.34 1.5469 0 3.0078-0.26953 4.4023-0.74219 1.4727 2.9062 2.7539 6.1055 3.2773 8.9844-2.0859-2.9805-5.2852-4.9297-8.8594-5.4141-0.42188-0.078125-0.85938-0.10156-1.2812-0.12891-0.078125 0-0.12891-0.027344-0.21875-0.027344h-3.3984c-6.1836 0-17.816 5.6836-23.848 8.8594-0.39844 0.21875-0.76953 0.42188-1.1133 0.61328-0.39844 0.21875-0.74219 0.39844-1.0625 0.58984-0.12891 0.078125-0.29297 0.15234-0.42188 0.24219l-0.19141 0.10156c-1.2539 0.71875-2.3164 1.6758-3.1758 2.8047-2.1367 2.8789-2.7773 6.7461-1.4062 10.266l6.7695 17.574c0.64063 1.7539 1.8672 3.1992 3.4688 4.1328l-7.2812 22.746-14.375 14.719c-3.0703 3.1484-3.0469 8.2188 0.050782 11.328 1.5742 1.5742 3.6484 2.3438 5.707 2.3438 2.0469 0 4.082-0.76953 5.6562-2.293l20.852-20.48 6.6953-14.504 12.875 11.867 8.9844 20.609c1.3086 2.9961 4.2148 4.7891 7.2891 4.7891 0.98437 0 1.9961-0.19141 2.9805-0.58984l0.12891-0.050781c4.1602-1.6523 6.207-6.3477 4.582-10.457-2.8672-7.4883-8.6016-22.184-8.6016-22.184l-17.996-22.691c-0.64063-0.79297-0.76953-1.8672-0.32031-2.7773l2.9062-6.3242 3.3008 3.0977c1.5234 1.3828 3.4688 2.1133 5.4648 2.1133 0.98438 0 1.9727-0.19141 2.9297-0.5625l16.934-6.7188c4.1367-1.5547 6.25-6.1602 4.6992-10.297zm-33.328-27.52c-0.66406-1.1523-1.2812-2.1367-1.793-2.9297 0.12891-0.34375 0.12891-0.76953-0.078125-1.1523l-1.3555-2.3164c0.44922-0.76953 0.53906-1.7539 0.027344-2.6094-0.74219-1.2812-2.3672-1.7031-3.6484-0.96094-1.2539 0.74219-1.7031 2.3672-0.96094 3.6484 0.51172 0.83203 1.3828 1.2539 2.293 1.2812l1.332 2.3164c0.26953 0.39844 0.69141 0.64062 1.1758 0.64062 0.050782 0 0.078126-0.027343 0.12891-0.027343 0.44922 0.69141 0.98438 1.5469 1.6016 2.5352-0.58984 0.12891-1.1758 0.21875-1.793 0.21875-4.4297 0-8-3.5977-8-8-0.003906-4.4336 3.5703-8.0039 7.9961-8.0039 4.4023 0 8 3.5703 8 8 0 3.3008-2.0195 6.1562-4.9258 7.3594zm2.5586 4.7227c1.3047-0.58984 2.5078-1.4062 3.5469-2.3945 0.51172 3.8125 0.027344 7.8711-0.44922 10.484-0.65234-2.6992-1.8164-5.5039-3.0977-8.0898zm-26.508 74.344-20.16 19.789c-1.0625 1.0352-2.8047 1.0352-3.8398-0.027343-1.0625-1.0352-1.0625-2.7539-0.027344-3.8125l15.258-15.629 3.1484-9.8164 4.7227-14.719c0.98438 1.9961 2.3164 3.8398 3.9688 5.3906l3.9414 3.6211zm16.18-35.098c-1.2812 2.7773-0.88281 5.9766 1.0117 8.3438l17.332 21.656c0.85938 2.2383 5.8633 15.09 8.4727 21.836 0.53906 1.3828-0.19141 2.9805-1.6016 3.5469l-0.16797 0.050781c-1.2812 0.53906-2.8047-0.078125-3.3906-1.3828l-9.4453-21.633-21.695-20.066c-1.2539-1.1523-2.2383-2.5352-2.9297-4.0312 1.3047-1.4727 2.1133-3.3672 2.1133-5.3906 0-0.79297-0.12891-1.6523-0.39844-2.457 0-0.050781 0-0.078125-0.027344-0.12891 0-0.44922 0.10156-1.0352 0.24219-1.4727 0.050781-0.21875 0.10156-0.39844 0.15234-0.51172 0.050782-0.12891 0.078126-0.21875 0.078126-0.21875 1.6523-4.2383 7.0391-7.8984 12.211-11.469 2.2383-1.5234 4.4297-3.0078 6.2969-4.5312zm9.2773-20.531c-2.1367 2.0469-5.043 4.0586-8.0781 6.1328-5.3125 3.6211-10.754 7.3594-12.633 11.891l-0.58984-2.5078 2.5352-7.8984 7.168-2.8789c0.93359-0.37109 1.5469-1.2539 1.6523-2.1875 0.050781-0.42188 0-0.85938-0.15234-1.2812-0.5625-1.3828-2.1133-2.0234-3.4688-1.4961l-15.461 6.2305 0.85938 3.6211 2.9805 12.609 0.078124 0.26953c0.12891 0.32031 0.19141 0.64062 0.19141 0.96094 0 1.0898-0.71875 2.1133-1.7656 2.4844-0.66406 0.26953-1.3828 0.24219-2.0234-0.050781-0.66406-0.29297-1.1523-0.83203-1.4062-1.5469l-4.6992-12.16-2.1133-5.4414c-0.93359-2.4844 0.078125-5.3125 2.3945-6.5938 0 0 0.42187-0.24219 1.1758-0.64062 0.12891-0.078126 0.26953-0.12891 0.39844-0.21875 4.4297-2.3438 16.984-8.7695 22.297-8.7695h3.2773c0.74219 0.027344 1.4727 0.12891 2.1367 0.37109 1.7266 0.51172 3.1992 1.625 4.2109 3.2266 1.125 1.7656 1.4961 3.8789 1.0352 5.875zm25.203 9.3945-16.984 6.7461c-0.96094 0.37109-2.0469 0.19141-2.8047-0.51172l-4.582-4.2383 3.3906-7.3359 3.25 6.1836 15.922-5.8633c0.29297-0.10156 0.61328-0.15234 0.93359-0.15234 0.37109 0 0.74219 0.078125 1.125 0.24219 0.64063 0.29297 1.1523 0.83203 1.3828 1.4961 0.50781 1.3477-0.18359 2.8984-1.6328 3.4336z"/>
  <path d="m28.402 95.668-0.11328-0.011719-17.664-2.6016 17.191 5.2227c0.0625 0.011718 0.12891 0.039062 0.19141 0.039062 0.73047 0.10156 1.4062-0.39844 1.5234-1.125 0.11328-0.73047-0.39844-1.4102-1.1289-1.5234z"/>
  <path d="m35.02 96.5c-0.85938-0.11328-1.6914 0.47266-1.8164 1.3438-0.12891 0.87109 0.47266 1.6914 1.3438 1.8164l1.6758 0.24219c0.078125 0.011718 0.15234 0.011718 0.23047 0.011718 0.78125 0 1.4727-0.57422 1.5742-1.3711 0.12891-0.87109-0.48828-1.6914-1.3555-1.8047z"/>
  <path d="m38.207 82.293 10.238 1.4609c0.027344 0 0.0625 0.011719 0.089844 0.011719 0.73047 0.050781 1.3828-0.5 1.4336-1.2305 0.050781-0.73047-0.5-1.3828-1.2305-1.4336h-0.039062l-10.238-0.78125c-3.4062-0.32031-6.8086-0.71875-10.203-1.1914-6.7852-0.96094-13.531-2.2266-20.211-3.8672 6.5547 2.0625 13.234 3.7773 19.98 5.1719 3.3828 0.69141 6.7773 1.3203 10.18 1.8594z"/>
  <path d="m35.762 65.586c0.74219 0.050781 1.3711-0.5 1.4219-1.2422 0.050781-0.74219-0.5-1.3711-1.2422-1.4219-6.8984-0.48828-13.785-1.2812-20.633-2.418 6.6562 2.0078 13.426 3.6875 20.273 5.0547 0.066407 0.015625 0.12891 0.015625 0.17969 0.027344z"/>
  <path d="m39.887 49.816c0.74219 0.039063 1.3711-0.52344 1.4219-1.2656 0.039062-0.74219-0.52344-1.3711-1.2656-1.4219h-0.089844l-15.09-0.88281 14.785 3.5312c0.070312 0.015625 0.16016 0.027344 0.23828 0.039062z"/>
 </g>
</svg>
