<?xml version="1.0" encoding="UTF-8"?>
<svg width="128pt" height="128pt" version="1.1" viewBox="0 0 128 128" xmlns="http://www.w3.org/2000/svg">
 <g>
  <path d="m64.969 24.242c6.207 0 11.25-5.043 11.25-11.25 0-6.207-5.043-11.25-11.25-11.25s-11.25 5.043-11.25 11.25c0.003906 6.207 5.043 11.25 11.25 11.25z"/>
  <path d="m109.57 10.859c-1.3594-1.7461-3.6836-1.9375-5.4297-0.58203l-25.211 19.781c-10.086-5.8164-20.168-6.0117-29.48 0.58203l-25.598-20.363c-1.7461-1.3594-4.0742-0.96875-5.4297 0.58203-1.3594 1.7461-1.1641 4.0742 0.58203 5.4297l27.539 21.527c0.38672 0.19531 0.77734 0.38672 1.1641 0.58203 3.8789 48.68 3.2969 45.965 3.8789 46.547l-14.547 32.969c-1.3594 2.9102 0 6.3984 2.9102 7.7578s6.3984 0 7.7578-2.9102c17.066-38.789 16.098-36.074 16.484-37.238l1.7422 0.003906c0.19531 1.1641-0.77734-1.5508 16.484 37.238 1.3594 2.9102 4.8477 4.2656 7.7578 2.9102 2.9102-1.3594 4.2656-4.6562 2.9102-7.7578l-14.547-32.969c0.58203-0.58203 0 2.3281 3.8789-47.711l26.57-20.949c1.7461-1.3555 1.9414-3.6836 0.58203-5.4297z"/>
  <path d="m25.02 28.121h-1.9375c0 6.3984 5.2383 11.637 11.637 11.637v-1.9375c-5.2383 0.19141-9.6992-4.2695-9.6992-9.6992z"/>
  <path d="m28.703 28.121h-1.9375c0 4.4609 3.6836 7.9531 7.9531 7.9531v-1.9375c-3.3008 0.19141-6.0156-2.5234-6.0156-6.0156z"/>
  <path d="m92.898 38.012v1.9375c6.3984 0 11.637-5.2383 11.637-11.637h-1.9375c-0.003906 5.2383-4.4648 9.6992-9.6992 9.6992z"/>
  <path d="m98.91 28.121c0 3.2969-2.7148 6.0117-6.0117 6.0117v1.9375c4.4609 0 7.9531-3.6836 7.9531-7.9531z"/>
 </g>
</svg>
