<?xml version="1.0" encoding="UTF-8"?>
<svg width="128pt" height="128pt" version="1.1" viewBox="0 0 128 128" xmlns="http://www.w3.org/2000/svg">
 <g>
  <path d="m40.465 86.543h33.203c6.0781 0 11.027-4.9492 11.027-11.027v-26.965c0-2.9531-1.3555-5.6602-3.7148-7.4297-2.3594-1.7656-5.3438-2.3203-8.168-1.4766l-24.918 6.4453v-13.832c0-3.0391-2.4609-5.5-5.5-5.5-3.0391 0-5.5 2.4609-5.5 5.5v26.445c0.042969 0.72266 0.22656 1.3984 0.53125 1.8945 1.168 1.9844 3.6758 2.2461 7.4648 0.8125l17.828-5.0781 1.2539 19.41-26.562-0.003907-0.007812-0.003906c-3.4062 0-6.5547 1.5391-8.6523 4.2266-2.0898 2.6875-2.8086 6.1211-1.9805 9.4219l7.4766 29.531c0.45703 1.7969 1.5977 3.2891 3.2109 4.2031 1.6133 0.91797 3.4766 1.1172 5.2578 0.58594 3.3984-1.0234 5.4219-4.5312 4.6055-7.9844z"/>
  <path d="m96.238 105.03-11.875-0.30078c-2.3828 0-4.4883-1.7305-4.9609-4.1172l-3.0469-10.492c-0.875 0.16016-1.7656 0.27344-2.6875 0.27344h-11.383l6.5391 20.406c0.83203 2.8945 3.4609 4.8711 6.4102 4.8711h21.004c2.9336 0 5.3242-2.3867 5.3242-5.3203s-2.3906-5.3203-5.3242-5.3203z"/>
  <path d="m74.297 30.719c7.3672 0 13.363-5.9922 13.363-13.359 0.003906-7.3672-5.9922-13.359-13.363-13.359-7.3633 0-13.359 5.9922-13.359 13.359s5.9961 13.359 13.359 13.359z"/>
 </g>
</svg>
