<?xml version="1.0" encoding="UTF-8"?>
<svg width="128pt" height="128pt" version="1.1" viewBox="0 0 128 128" xmlns="http://www.w3.org/2000/svg">
 <g>
  <path d="m72.879 51.559c1.6836 2.3398 2.1914 6.4141 2.0508 11.066l39.73-21.691c2.2188-1.2109 3.0938-3.9414 1.9844-6.2188-1.0898-2.2344-3.7422-3.25-6.043-2.3047l-40.281 16.523c0.91406 0.68359 1.7773 1.5391 2.5586 2.625z"/>
  <path d="m25.559 45.781c0.36719-0.10547 0.72656-0.24609 1.0703-0.41016 0.55859-0.79297 1.2344-1.5156 2.0156-2.1367l3.8867-3.0781c0.45703-0.36328 1.125-0.28516 1.4883 0.17188s0.28516 1.125-0.17188 1.4883l-3.8867 3.0781c-1.9375 1.5352-3.0469 3.832-3.0469 6.3008v38.785c0 0.43359-0.26562 0.82422-0.66797 0.98438l-7.7773 3.0898c-0.60938 0.24219-1.0039 0.82031-1.0039 1.4766 0 0.87891 0.71484 1.5898 1.5898 1.5898h10.945c2.418 0 4.3711-1.8906 4.4453-4.3086l1.2305-38.852c0.019531-0.58594 0.50391-1.043 1.0938-1.0234 0.58594 0.019531 1.043 0.50781 1.0234 1.0938l-0.24609 7.7656c5.082 3.543 11.492 5.1172 19.07 4.6797 0.29297-0.019531 0.57812 0.085938 0.78906 0.28516s0.33203 0.48047 0.33203 0.76953v22.629c0 3.8359 3.1211 6.9609 6.9609 6.9609h24.988c2.3867 0 4.3281-1.9414 4.3281-4.3281 0-2.2422-1.7539-4.1406-3.9883-4.3164l-17.355-1.3711c-0.98438-0.078125-1.8789-0.57812-2.4609-1.375-0.57813-0.79688-0.78125-1.8008-0.55469-2.7617 1.3516-5.6875 5.4531-24.676 1.5-30.172-3.1914-4.4336-7.9102-4.3516-12.473-4.2695-2.1719 0.039062-4.2188 0.074218-5.9375-0.42578-3.3984-0.98828-5.5195-3.6523-7.5703-6.2305-1.1875-1.4883-2.3047-2.8984-3.6055-3.8945-3.4141-2.6172-8.832-3.3359-8.8867-3.3438-0.48438-0.0625-0.86328-0.44531-0.91797-0.93359-0.10547-0.94141-0.29688-1.8906-0.57031-2.8164-1.9688-6.7266-7.7031-10.988-12.785-9.5-2.4102 0.70703-4.332 2.6094-5.4141 5.3594-1.1172 2.8438-1.1953 6.2305-0.23047 9.5391 1.9727 6.7266 7.7109 10.988 12.793 9.5z"/>
  <path d="m120.64 91.039h-24.75c0.16016 0.55859 0.24609 1.1484 0.24609 1.7539 0 3.5547-2.8906 6.4492-6.4492 6.4492h-24.988c-4.7109 0-8.5938-3.6055-9.0352-8.1992h-19.043l-0.058594 1.8438c-0.11328 3.5664-2.9961 6.3594-6.5625 6.3594l-10.941-0.003906c-2.043 0-3.707-1.6641-3.707-3.707 0-1.5273 0.91797-2.8828 2.3398-3.4453l2.6328-1.0469-12.965-0.003907-7.3594 15.875h128z"/>
 </g>
</svg>
