<?xml version="1.0" encoding="UTF-8"?>
<svg width="128pt" height="128pt" version="1.1" viewBox="0 0 128 128" xmlns="http://www.w3.org/2000/svg">
 <g>
  <path d="m101.21 20.496c-0.78125-0.23047-1.6133 0.03125-2.1211 0.67969l-11.059 14.18c-1.2031 1.5508-3.0234 2.5312-4.9805 2.6914l-1.6562 0.14062c-1.7383 0.13672-3.4609-0.35547-4.8516-1.4102-0.72656-0.55078-1.6289-0.85547-2.5469-0.85547h-18.68c-0.91406 0-1.8203 0.30469-2.5469 0.85547-1.3906 1.0547-3.1055 1.5508-4.8516 1.4102l-1.6602-0.14062c-1.9531-0.16406-3.7695-1.1445-4.9805-2.6914l-11.059-14.18c-0.5-0.64453-1.3398-0.91016-2.1211-0.67969-0.58984 0.17578-1.0586 0.60938-1.2852 1.1836-0.21875 0.57812-0.16406 1.2148 0.16406 1.7383l9.6055 15.625c1.4492 2.3555 4.0664 3.8203 6.8359 3.8203h5.1016c0.78516 0 1.4219 0.63672 1.4219 1.4219v24.289c0 0.125-0.015625 0.24609-0.050781 0.37109l-2.1992 8.2031c-1.2383 4.6289-0.57422 9.6602 1.8398 13.805l7.375 12.672c0.98438 1.6953 3.1133 2.3047 4.8516 1.3906 1.7539-0.92578 2.4648-3 1.6758-4.7539l-6.3945-14.16c-0.89844-1.9844-0.71484-4.2617 0.47656-6.0742 2.9453-4.4688 8.0664-15.57 8.1133-15.68 0.23438-0.51172 0.73828-0.82422 1.2891-0.82422 0.078125 0 0.16406 0.003906 0.24609 0.019531 0.63672 0.10938 1.1133 0.63672 1.1719 1.2734l3.6055 41.23c0.13672 1.9297 1.7305 3.4219 3.6406 3.4219 2.0117 0 3.6445-1.6367 3.6445-3.6445v-61.531c0-0.78516 0.63672-1.4219 1.4219-1.4219h5.2383c2.7695 0 5.3867-1.4648 6.8359-3.8203l9.6055-15.625c0.32422-0.53125 0.38672-1.1602 0.16406-1.7383-0.21875-0.57812-0.69141-1.0117-1.2852-1.1836z"/>
  <path d="m112.19 12.57c-1.2695 0-2.3008 1.0352-2.3008 2.3008v1.2539h-35.871c-1.0586-4.2344-4.8633-7.3945-9.4258-7.3945-4.5586 0-8.3711 3.1602-9.4258 7.3945h-37.051v-1.2539c0-1.2695-1.0352-2.3008-2.3008-2.3008s-2.3008 1.0352-2.3008 2.3008v104.4h4.6016v-100.3h36.781c0.26172 5.1406 4.4883 9.2539 9.6953 9.2539 5.2031 0 9.4336-4.1094 9.6953-9.2539h35.598v100.3h4.6055v-104.4c0-1.2695-1.0352-2.3008-2.3008-2.3008z"/>
 </g>
</svg>
