<?xml version="1.0" encoding="UTF-8"?>
<svg width="128pt" height="128pt" version="1.1" viewBox="0 0 128 128" xmlns="http://www.w3.org/2000/svg">
 <g>
  <path d="m104.57 46.207c-4.6094 1.2812-9.3438-1.9219-9.7266-6.9102-0.25781-2.9453 1.4062-5.8867 3.9688-7.2969 4.4805-2.4336 9.7266 0.12891 11.008 4.7344 1.2812 4.0977-1.1523 8.3203-5.25 9.4727z"/>
  <path d="m115.59 96.895h-103.04c-1.0234 0-1.9219-0.89453-1.9219-1.9219 0-1.0234 0.89453-1.9219 1.9219-1.9219h103.04c1.0234 0 1.9219 0.89453 1.9219 1.9219s-0.89453 1.9219-1.918 1.9219z"/>
  <path d="m95.23 86.91c-2.4336 0.38281-4.8633-1.2812-5.2461-3.7109l-4.6094-26.879-25.473 11.902c-0.12891 0-0.25781 0.12891-0.38281 0.12891l-37.758 17.664c-2.5586 1.2812-5.7617 0.12891-6.9102-2.5586-1.1523-2.5586-0.12891-5.7617 2.5586-6.9102l34.176-17.406c0.12891-0.64062 0.25781-1.4062 0.51172-2.0469 0 0 0.12891-0.12891 0.12891-0.25781 1.2812-2.8164 3.457-5.1211 6.2734-6.5273l23.938-11.52c1.0234-0.51172 2.0469-0.64062 3.0703-0.64062 3.457 0 6.5273 2.4336 7.168 6.0156l1.4062 8.0625 4.9922 29.312c0.38281 2.5586-1.2812 4.9883-3.8438 5.3711z"/>
 </g>
</svg>
