<?xml version="1.0" encoding="UTF-8"?>
<svg width="128pt" height="128pt" version="1.1" viewBox="0 0 128 128" xmlns="http://www.w3.org/2000/svg">
 <g>
  <path d="m125.18 47.23c-1.6641-3.1992-5.6289-4.4805-8.9609-2.5586l-9.0898 4.8633-5.1211-6.1445c-3.7109-4.4805-8.4492-7.8086-13.949-9.4688l-4.4805-1.5352c-6.1445-2.0508-12.801-2.0508-18.945 0.12891l-11.52 3.9688c-1.6641 0.64062-3.0703 1.7891-3.8398 3.5859l-6.3984 14.852c-1.5352 3.3281 0 7.1719 3.3281 8.7031 3.3281 1.5352 7.1719 0 8.7031-3.3281l5.5039-12.289 8.3203-2.8164c-2.8164 8.3203-6.7852 21.504-6.6562 25.215v0.12891c0 1.4102-0.25391 2.8164-0.76953 3.9688l-3.9688 13.816c-0.51172 1.6641-2.1758 2.9453-3.9688 2.9453h-17.281c-3.7109 0-7.0391 2.4297-7.8086 6.0156-1.2812 5.1211 2.8164 9.7305 7.6797 9.7305h26.238c3.3281 0 6.3984-2.1758 7.4258-5.5039l5.375-12.414c0.25391-0.64062 1.0234-0.89453 1.5352-0.51172l8.9609 6.1445c1.4102 0.89453 2.4297 2.4297 2.8164 4.0938l4.9961 21.5c1.0234 3.3281 4.0938 5.8906 7.6797 5.8906 0.64062 0 1.2812 0 1.7891-0.12891 4.0938-1.0234 6.7852-5.25 5.6289-9.3438l-6.3984-26.879c-0.51172-1.6641-1.4102-3.0703-2.5586-4.0938l-13.82-13.57c2.3047-5.1211 4.7344-12.289 7.0391-19.199l7.5508 9.2148c1.2812 1.5352 3.1992 2.4297 5.1211 2.4297 1.0234 0 2.1758-0.25391 3.0703-0.76953l13.832-7.5469c3.4531-1.7891 4.7344-5.7617 2.9453-9.0898z"/>
  <path d="m108.04 12.273c1.7695 7.5-2.875 15.016-10.375 16.785-7.5 1.7695-15.012-2.8711-16.785-10.371-1.7695-7.5 2.875-15.016 10.375-16.785 7.5-1.7695 15.012 2.875 16.785 10.371"/>
  <path d="m12.16 44.547h26.496c1.0234 0 1.9219-0.89453 1.9219-1.9219 0-1.0234-0.89453-1.9219-1.9219-1.9219h-26.496c-1.0234 0-1.9219 0.89453-1.9219 1.9219 0 1.0234 0.89453 1.9219 1.9219 1.9219z"/>
  <path d="m30.336 80.77h20.48c1.0234 0 1.9219-0.89453 1.9219-1.9219 0-1.0234-0.89453-1.9219-1.9219-1.9219h-20.48c-1.0234 0-1.9219 0.89453-1.9219 1.9219 0 1.0195 0.89453 1.9219 1.9219 1.9219z"/>
  <path d="m23.293 76.93h-7.6797c-1.0234 0-1.9219 0.89453-1.9219 1.9219 0 1.0234 0.89453 1.9219 1.9219 1.9219h7.6797c1.0234 0 1.9219-0.89453 1.9219-1.9219 0-1.0234-0.89453-1.9219-1.9219-1.9219z"/>
  <path d="m36.094 61.57c0-1.0234-0.89453-1.9219-1.9219-1.9219h-16.254c-1.0234 0-1.9219 0.89453-1.9219 1.9219 0 1.0234 0.89453 1.9219 1.9219 1.9219h16.254c1.0234 0 1.9219-0.89844 1.9219-1.9219z"/>
  <path d="m11.266 59.652h-2.1758c-1.0234 0-1.9219 0.89453-1.9219 1.9219 0 1.0234 0.89453 1.9219 1.9219 1.9219h2.1758c1.0234 0 1.9219-0.89453 1.9219-1.9219 0-1.0234-0.89453-1.9219-1.9219-1.9219z"/>
 </g>
</svg>
