<?xml version="1.0" encoding="UTF-8"?>
<svg width="128pt" height="128pt" version="1.1" viewBox="0 0 128 128" xmlns="http://www.w3.org/2000/svg">
 <g>
  <path d="m68.941 8.9805c3.1094 7.4492-0.40625 16.012-7.8555 19.121-7.4492 3.1133-16.012-0.40234-19.121-7.8516-3.1133-7.4492 0.40234-16.012 7.8516-19.125 7.4492-3.1094 16.012 0.40625 19.125 7.8555"/>
  <path d="m44.18 34.766c-2.457 0.089844-4.8242 1.0508-6.6172 2.7148 0.039062-0.089844 0.12891-0.17969 0.21875-0.26953 1.5352-1.4844 3.6367-2.457 5.9648-2.457h0.43359z"/>
  <path d="m62.559 78.836h-14.645l10.086-27.188h42.277c2.3281 0 4.4688-0.92188 6.0039-2.457 1.4961-1.5352 2.457-3.6367 2.457-5.9648 0-4.6992-3.7773-8.4609-8.4609-8.4609h-56.098c-2.457 0.089844-4.8242 1.0508-6.6172 2.7148-1.3203 1.1016-2.3281 2.5859-2.9805 4.3008l-14.43 38.809c-1.5469 4.1602-0.61328 9.0352-0.61328 9.0352 0 4.1602 3.3789 7.5 7.5391 7.5h20.262l-14.645 17.547c-3.5078 2.918-2.6367 8.0625-2.6367 8.0625 0 2.8945 2.3281 5.2617 5.2617 5.2617h22.145c2.8945 0 5.2617-2.3672 5.2617-5.2617s-2.3672-5.3125-5.2617-5.3125h-8.0625l20.082-24.078c1.1406-1.3555 1.7148-3.0195 1.7148-4.6992 0 0 2.9297-9.8164-8.6406-9.8164z"/>
 </g>
</svg>
