<?xml version="1.0" encoding="UTF-8"?>
<svg width="128pt" height="128pt" version="1.1" viewBox="0 0 128 128" xmlns="http://www.w3.org/2000/svg">
 <g>
  <path d="m20.426 93.582c1.0078-0.80859 1.5859-2.0117 1.5859-3.3086v-1.4961h-2.3867c-2.9492 0-5.4805-2.0078-6.1562-4.8828l-0.78906-3.3516c-1.7461-1.2969-2.9258-3.1719-3.3398-5.3242-0.35547-1.8516-0.089844-3.6836 0.64844-5.2773-0.92578-1.6953-2.7109-2.7695-4.668-2.7695-2.9336 0.007813-5.3203 2.4023-5.3203 5.3398v28.859c0 2.4492 1.6406 4.5742 3.9922 5.1641 1.2656 0.31641 2.5586 0.48047 3.8398 0.48047 3.3906 0 6.0664-1.0742 7.832-2.0859v-4.4883c0-1.9336 0.86328-3.7344 2.375-4.9453z"/>
  <path d="m125.2 77.824c-0.47656-0.73438-0.97266-1.4727-1.4805-2.1953-12.457-17.809-29.625-25.805-39.508-29.125-0.16406 1.1641-0.41406 2.3086-0.75781 3.418-0.17188 0.55469-0.76172 0.86328-1.3125 0.69141-0.55469-0.17188-0.86328-0.75781-0.69141-1.3125 0.42578-1.3789 0.69922-2.8203 0.82422-4.293 0-0.007812 0-0.011718 0.003907-0.019531 0.27344-3.3242-0.21875-6.8125-1.4688-10.16-1.8711-5.0078-5.2031-9.1172-9.3789-11.57-4.1055-2.4102-8.5391-2.9258-12.484-1.4492-8.2227 3.082-11.793 13.934-7.9609 24.195 1.6719 4.4766 4.5703 8.293 8.1758 10.793l15.562-2.9961c0.57031-0.10938 1.1211 0.26172 1.2305 0.83203 0.10938 0.57031-0.26172 1.1211-0.83203 1.2305l-58.508 11.266c-3.5547 0.68359-5.8906 4.1367-5.207 7.6992 0.33203 1.7266 1.3125 3.2188 2.7656 4.2031s3.1992 1.3438 4.9219 1.0117l58.508-11.266c0.57031-0.10938 1.1211 0.26172 1.2305 0.83203s-0.26172 1.1211-0.83203 1.2305l-0.71875 0.14062c3.2773 2.1055 6.4414 4.4219 9.4258 6.9062 3.3789 2.8125 6.5898 5.8906 9.5469 9.1445 0.27734 0.30859 0.35156 0.75 0.18359 1.1289-0.16797 0.37891-0.54297 0.625-0.96094 0.625l-71.363-0.003906v1.4961c0 1.9336-0.86328 3.7344-2.375 4.9453l-2.3828 1.9102c-1.0078 0.80859-1.5859 2.0117-1.5859 3.3086v4.0352h92.918c6.4297 0 12.105-3.3789 15.184-9.043 3.0664-5.6445 2.8164-12.227-0.67188-17.609z"/>
  <path d="m99.555 35.457c4.1875 0.65234 8.1445 2.1055 11.762 4.3242 3.6172 2.2148 6.7109 5.082 9.1953 8.5195 0.20703 0.28516 0.52734 0.43359 0.85156 0.43359 0.21484 0 0.42969-0.066406 0.61328-0.19922 0.46875-0.33984 0.57422-0.99609 0.23438-1.4648-2.6484-3.6641-5.9492-6.7188-9.8008-9.0781-3.8516-2.3633-8.0703-3.9102-12.535-4.6055-0.57422-0.089844-1.1094 0.30078-1.1992 0.875-0.085937 0.57031 0.30859 1.1055 0.87891 1.1953z"/>
  <path d="m98.012 42.855c3.3242 0.51953 6.4648 1.6719 9.332 3.4297 2.8672 1.7578 5.3242 4.0312 7.2969 6.7617 0.20703 0.28516 0.52734 0.43359 0.85156 0.43359 0.21484 0 0.42969-0.066407 0.61328-0.19922 0.46875-0.33984 0.57422-0.99609 0.23438-1.4648-2.1367-2.9531-4.793-5.418-7.9023-7.3203-3.1055-1.9023-6.5078-3.1523-10.105-3.7148-0.57422-0.089844-1.1094 0.30078-1.1992 0.875-0.085937 0.57422 0.30469 1.1094 0.87891 1.1992z"/>
 </g>
</svg>
