<?xml version="1.0" encoding="UTF-8"?>
<svg width="128pt" height="128pt" version="1.1" viewBox="0 0 128 128" xmlns="http://www.w3.org/2000/svg">
 <g>
  <path d="m27.52 74.254c12.621-5.8477 25.023-11.598 37.504-17.383-0.21875-0.37109-0.39844-0.66406-0.57422-0.94531-2.9688-4.5195-4.2109-5.9648-7.1797-10.484-2.9062-4.4141-0.87109-8.7422 4.3789-9.5352 10.828-1.625 21.645-3.3398 32.473-4.9805 2.2266-0.33203 4.4922-0.71875 6.7188-0.66406 2.625 0.0625 4.7617 1.3828 5.9258 3.8281 1.4062 2.957-0.10156 6.3242-3.5195 7.5781-1.832 0.66406-3.8281 0.94531-5.7734 1.2539-7.0391 1.1133-14.105 2.1758-21.391 3.2891 7.1562 10.895 12.52 18.598 19.648 29.441-3.6719 0.96094-7.207 0.96094-10.664-0.25781-3.7773-1.332-7.5781-2.0625-11.547-1.1406-1.7773 0.42188-3.5078 1.0625-5.2852 1.5117-3.4805 0.89453-6.9648 0.79297-10.328-0.44922-5.0312-1.8672-9.9727-1.8945-15.016-0.027344-3.9805 1.4727-8.0391 1.3711-12.059 0.027344-1.0078-0.33594-2.043-0.65234-3.3125-1.0625z"/>
  <path d="m10.727 85.234v-5.7969c0-0.41016 0.43359-0.76953 1.0234-0.83203 1.0117-0.10156 2.0234-0.20312 2.9805-0.41016 1.6914-0.35937 3.2891-0.89453 4.9531-1.2812 3.4297-0.78125 6.8477-0.64062 10.137 0.38281 2.7539 0.85938 5.5547 1.5625 8.5898 1.2539 1.9336-0.19141 3.8906-0.55078 5.6836-1.0898 4.3906-1.3203 8.6797-1.3828 13.004 0.027343 4.5312 1.4844 9.0625 1.4961 13.605 0 4.3281-1.4219 8.6641-1.4336 12.992-0.011719 4.4922 1.4727 8.9609 1.4961 13.441 0.078126 4.25-1.3438 9.1406-1.3438 13.402 0 1.7266 0.53906 3.5078 0.92187 5.4258 1.0352 0.62891 0.039062 1.1133 0.39844 1.1133 0.84375v5.7969c0 0.5-0.61328 0.88281-1.3203 0.84375-1.4727-0.10156-2.8672-0.37109-4.25-0.74219-1.5352-0.42188-3.0859-0.88281-4.6719-1.1641-3.1602-0.55078-6.2578-0.24219-9.2031 0.71875-3.3281 1.0898-6.7578 1.6133-10.395 0.96094-1.293-0.23047-2.5586-0.58984-3.7891-0.96094-4.082-1.2305-8.6914-1.1758-12.734 0.11328-4.5703 1.4453-9.0352 1.4609-13.605 0.011719-4.1602-1.3203-8.9609-1.2812-13.121 0.027343-4.6328 1.4609-9.1914 1.4336-13.812-0.12891-1.0117-0.34375-2.1133-0.5625-3.1992-0.74219-2.9805-0.5-5.875-0.19141-8.7305 0.5625-1.9727 0.51172-4.0078 0.91016-6.0273 1.332h-0.011719c-0.73828 0.14453-1.4805-0.27734-1.4805-0.82812z"/>
  <path d="m10.727 96.844v-5.7969c0-0.41016 0.43359-0.76953 1.0234-0.83203 1.0117-0.10156 2.0234-0.20312 2.9805-0.41016 1.6914-0.35938 3.2891-0.89453 4.9531-1.2812 3.4297-0.78125 6.8477-0.64063 10.137 0.38281 2.7539 0.85938 5.5547 1.5625 8.5898 1.2539 1.9336-0.19141 3.8906-0.55078 5.6836-1.0898 4.3906-1.3203 8.6797-1.3828 13.004 0.027344 4.5312 1.4844 9.0625 1.4961 13.605 0 4.3281-1.4219 8.6641-1.4336 12.992-0.011718 4.4922 1.4727 8.9609 1.4961 13.441 0.078124 4.25-1.3438 9.1406-1.3438 13.402 0 1.7266 0.53906 3.5078 0.92188 5.4258 1.0352 0.62891 0.039062 1.1133 0.39844 1.1133 0.84375v5.7969c0 0.5-0.61328 0.88281-1.3203 0.84375-1.4727-0.10156-2.8672-0.37109-4.25-0.74219-1.5352-0.42188-3.0859-0.88281-4.6719-1.1641-3.1602-0.55078-6.2578-0.24219-9.2031 0.71875-3.3281 1.0898-6.7578 1.6133-10.395 0.96094-1.293-0.23047-2.5586-0.58984-3.7891-0.96094-4.082-1.2305-8.6914-1.1758-12.734 0.11328-4.5508 1.4375-9.0195 1.4375-13.59 0.003906-4.1602-1.3203-8.9609-1.2812-13.121 0.027344-4.6328 1.4609-9.1914 1.4336-13.812-0.12891-1.0117-0.34375-2.1133-0.5625-3.1992-0.74219-2.9805-0.5-5.875-0.19141-8.7305 0.5625-1.9727 0.51172-4.0078 0.91016-6.0273 1.332h-0.011719c-0.75391 0.14063-1.4961-0.26953-1.4961-0.82031z"/>
  <path d="m104.51 72.539c-7.4766-0.29297-12.559-5.6836-12.25-12.965 0.28125-6.6953 6.2344-11.852 13.324-11.547 6.6289 0.29297 11.969 6.1328 11.688 12.773-0.30859 6.6172-6.1562 12.004-12.762 11.738z"/>
 </g>
</svg>
