<?xml version="1.0" encoding="UTF-8"?>
<svg width="128pt" height="128pt" version="1.1" viewBox="0 0 128 128" xmlns="http://www.w3.org/2000/svg">
 <path d="m114 42h-2c0-0.53125-0.21094-1.0391-0.58594-1.4141s-0.88281-0.58594-1.4141-0.58594h-15.469l-9.8516-5.6289h0.003906c-2.7227-1.5508-5.8008-2.3711-8.9336-2.3711h-3.8008c1.3242-1.7227 2.043-3.8281 2.0508-6v-12c0-5.5234-4.4766-10-10-10s-10 4.4766-10 10v12c0.007812 2.1719 0.72656 4.2773 2.0508 6h-3.8008 0.003906c-3.1328 0-6.2148 0.82031-8.9336 2.3711l-9.8516 5.6289h-14.316c-1.5898-3.6406-5.1797-5.9961-9.1523-6-1.1055 0-2 0.89453-2 2v10c0 3.3125 2.6875 6 6 6h2v2c0 0.53125 0.21094 1.0391 0.58594 1.4141s0.88281 0.58594 1.4141 0.58594h15.566c3.2656 0 6.4648-0.88672 9.2617-2.5625l3.1719-1.9023v17.543l-8.7266 7.4766v0.003906c-3.3164 2.8438-5.4883 6.7969-6.1055 11.125l-3.1484 22.031c-0.082031 0.57422 0.089844 1.1562 0.46875 1.5938 0.37891 0.44141 0.93359 0.69141 1.5117 0.69141v2.2539c-3.5312 0.91406-5.9961 4.0977-6 7.7461 0 0.53125 0.21094 1.0391 0.58594 1.4141s0.88281 0.58594 1.4141 0.58594h14c0.53125 0 1.0391-0.21094 1.4141-0.58594s0.58594-0.88281 0.58594-1.4141v-10c0.96484 0 1.793-0.69141 1.9648-1.6406l3.2344-17.773c0.35938-1.9805 1.6875-3.6523 3.5391-4.4414l8.5391-3.6562v-0.003906c0.74609-0.32031 1.5508-0.48438 2.3633-0.48438h1.4141c0.75781 0 1.5078 0.14453 2.2148 0.42188 0.49219 0.20312 1.0508 0.19922 1.543-0.011719 0.49219-0.21094 0.87891-0.60938 1.0742-1.1055 0.19922-0.5 0.1875-1.0547-0.03125-1.543-0.21875-0.49219-0.62109-0.87109-1.125-1.0625-1.168-0.46094-2.4141-0.69922-3.6758-0.69922h-1.4141c-1.3516-0.003906-2.6914 0.26953-3.9375 0.80078l-8.5391 3.6602c-3.0859 1.3164-5.3047 4.0977-5.8984 7.3984l-2.9375 16.141h-8.0234l2.8203-19.754h0.003906c0.48047-3.3594 2.168-6.4336 4.7461-8.6445l8.8633-7.6016h29.906l7.5625 18.895 8.5586 17.105h-7.7656l-10.535-14.047c-0.50391-0.67188-0.94531-1.3867-1.3203-2.1406l-1.3438-2.707c-0.49609-0.98828-1.6953-1.3906-2.6836-0.89453-0.98828 0.49219-1.3906 1.6953-0.89844 2.6836l1.3555 2.707c0.48438 0.96484 1.0547 1.8867 1.7031 2.7539l11.121 14.844c0.37891 0.50391 0.97266 0.80078 1.6016 0.80078h0.76562l3.2109 6.4219h-0.003906c1.6992 3.4297 5.2031 5.5898 9.0273 5.5781 1.8945 0 3.625-1.0703 4.4727-2.7656 0.84766-1.6914 0.66406-3.7188-0.47266-5.2344l-3.5156-4.6836c0.57812-0.58984 0.69922-1.4883 0.30469-2.2109l-9.9336-19.848-7.8555-19.645v-18.078l3.1719 1.9023c2.7969 1.6758 6 2.5625 9.2617 2.5625h13.566v2c0 0.53125 0.21094 1.0391 0.58594 1.4141s0.88281 0.58594 1.4141 0.58594c5.5195-0.007812 9.9922-4.4805 10-10v-2c0-3.3125-2.6875-6-6-6zm-76 70v8h-9.4609c0.71484-1.2383 2.0312-2 3.4609-2 0.53125 0 1.0391-0.21094 1.4141-0.58594s0.58594-0.88281 0.58594-1.4141v-4zm62 7c0 0.26562-0.10547 0.51953-0.29297 0.70703s-0.44141 0.29297-0.70703 0.29297c-2.3086 0.007812-4.4219-1.3008-5.4492-3.3672l-2.3164-4.6328h3.7656l4.8008 6.3984c0.12891 0.17578 0.19922 0.38672 0.19922 0.60156zm-42-105c0-3.3125 2.6875-6 6-6s6 2.6875 6 6v0.26562l-2.8906-1.9297c-0.67188-0.44922-1.5469-0.44922-2.2188 0l-2.6719 1.7812c-1.2734 0.85156-2.7109 1.4336-4.2188 1.7031zm0 12v-6.1445c2.3008-0.29688 4.5039-1.1172 6.4375-2.4023l1.5625-1.0547 4 2.6641v6.9375c0 3.3125-2.6875 6-6 6s-6-2.6875-6-6zm-44 22c-1.1055 0-2-0.89453-2-2v-7.6562c2.3945 0.84766 3.9961 3.1133 4 5.6562v4zm80.434 4c-2.5391-0.003906-5.0273-0.69531-7.2031-2l-6.1992-3.7188c-0.61719-0.375-1.3906-0.38281-2.0195-0.027344-0.625 0.35547-1.0156 1.0234-1.0117 1.7461v20h-28v-20c0-0.71875-0.38672-1.3867-1.0156-1.7422-0.625-0.35156-1.3984-0.34375-2.0156 0.027344l-6.1953 3.7148c-2.1758 1.3047-4.6641 1.9961-7.1992 2h-13.574v-8h14c0.35156 0 0.69531-0.089844 1-0.26562l10.309-5.8906c2.1172-1.207 4.5078-1.8398 6.9414-1.8438h23.5c2.4375 0 4.832 0.63672 6.9492 1.8438l10.301 5.8906c0.30469 0.17578 0.64844 0.26562 1 0.26562h14v8zm21.566-2c-0.003906 2.543-1.6055 4.8086-4 5.6562v-9.6562h2c0.53125 0 1.0391 0.21094 1.4141 0.58594s0.58594 0.88281 0.58594 1.4141z"/>
</svg>
