<?xml version="1.0" encoding="UTF-8"?>
<svg width="128pt" height="128pt" version="1.1" viewBox="0 0 128 128" xmlns="http://www.w3.org/2000/svg">
 <g>
  <path d="m23.625 61.086h10.078l0.12891-2.8516h0.003907c-0.28906-1.1875-0.74609-2.3281-1.3516-3.3906-0.14062-0.22656-0.078125-0.51953 0.14062-0.67188s0.51562-0.10547 0.67969 0.10156c0.25781 0.40234 0.47656 0.82812 0.64844 1.2734l0.074219-1.6211h-10.277c0.30859 2.5 0.10938 4.6562-0.12109 7.1055 0 0.019531-0.003906 0.039062-0.003906 0.054688zm5.5898-6.6641c0.18359-0.19922 0.49219-0.21875 0.69531-0.039063 0.20312 0.17578 0.23047 0.48438 0.058594 0.69141 0 0.03125-1.0586 1.3281-1.3047 5.0352-0.015624 0.27734-0.25391 0.48438-0.53125 0.46875-0.27734-0.019531-0.48437-0.25781-0.46875-0.53125 0.27734-4.1328 1.4961-5.5469 1.5508-5.625z"/>
  <path d="m32.359 70.547 0.21484 5.0742c1.5898-0.46875 3.2656-0.58984 4.9062-0.35938-0.69141-2.8359-1.5898-6.0469-2.0898-7.7852-0.54688-1.8906-0.92578-3.1953-1.3711-4.6914v-0.046875l-0.19531-0.64844h-10.324c-0.17578 1.0234-0.41016 2.0391-0.70312 3.0352-0.74609 2.2656-1.3164 5.8398-0.38672 10.574 2.9688-0.64062 6.2188-1.2188 9.1641-0.19922l-0.20312-4.8516-2.5-2.1133c-0.17188-0.18359-0.17969-0.46484-0.019532-0.65625 0.15625-0.19531 0.4375-0.24219 0.64844-0.10938l2.2266 1.8867 1.1133-1.7695c0.15625-0.21484 0.44531-0.26953 0.66797-0.12891 0.22266 0.13672 0.30078 0.42578 0.17578 0.65625z"/>
  <path d="m30.5 32.672c-1.0391 1.6602-2.4336 3.1641-3.5586 4.7656 0.87891 1.3438 4.3633 6.6211 6.1797 5.3789-2.6719-3.2109-4.3438-5-4.3594-5-0.15625-0.16406-0.18359-0.41016-0.066407-0.60156l0.75-1.25c0.12891-0.21094 0.39063-0.30078 0.62109-0.20312 1.3164 0.5 3.2266 0.60156 3.3203-2 0.21484-1.8594 0.47656-4.1289 0.20312-5.9766-0.80469 0.29688-1.5742 0.67578-2.3008 1.1289 0.027344 1.2969-0.24219 2.582-0.78906 3.7578z"/>
  <path d="m36.875 52.219c-0.52344 0.60156-1.1445 1.1094-1.8359 1.5 0 0.5-0.078124 1.7344-0.10156 2.2617h0.003906c0.26953 0.55469 0.60547 1.0781 1 1.5547 0.35938-0.57031 0.55859-1.6602 1.3086-1.3008 0.23047 0.14844 0.29688 0.45703 0.14844 0.69141-0.30469 0.51953-0.57813 1.0547-0.82031 1.6094v0.046875c-0.46094 1.0508-1 2.4141-1.5391 4.0469 0.23047 0.76953 0.64844 2.1914 0.97656 3.3086 0.89844-1.8711 2.5742-5.5508 2.7812-7.4453 0.20312-1.8984-1.2266-4.9258-1.9219-6.2734z"/>
  <path d="m26.285 38.281-0.03125 0.046875c2.0469 3.8516 2.6641 9.2891-4.1641 9.1914v-0.003906c0.66406 1.7539 1.1641 3.5625 1.5 5.4102h10.84c2.7383-1.5 3.5586-4.2188 1.1719-7.0547-0.66797-0.82031-1.2812-1.582-1.8438-2.2852-2.6523 1.9531-6.1836-3.4297-7.4727-5.3047z"/>
  <path d="m33.387 26.785c-0.81641-3.6758-5.9141-2.1406-7.6914-1.1914l5.0547 2.457c0.82422-0.52344 1.7109-0.94922 2.6367-1.2656z"/>
  <path d="m30.77 115 2.1211-0.054688 5.7852-21c0.058594-1.2266 0.46875-12.945-0.94141-17.637-1.707-0.30078-3.4609-0.18359-5.1133 0.34766 0 0.058594 0.53906 12.32 0.53125 12.387 0.078125 0.5-0.64062 5.2188-1.3516 6.6094zm5.7305-23.578c0.074219 0.066406 1.8203 1.5898 1.8203 3.5547 0 0.27344-0.22266 0.5-0.5 0.5-0.27734 0-0.5-0.22656-0.5-0.5 0-1.5-1.4609-2.7852-1.5-2.7969-0.10156-0.089844-0.16016-0.21484-0.16797-0.35156-0.007813-0.13672 0.039062-0.26562 0.12891-0.36719 0.1875-0.21094 0.50781-0.23047 0.71875-0.039063z"/>
  <path d="m40.129 120.08-7-4.1445-2.7266 0.070312h0.003906c-0.73828 0.78125-1.1719 1.8008-1.2227 2.8711l-0.03125 0.5 2 1.2734h0.003906c0.28516 0.19531 0.52344 0.45703 0.68359 0.76562 2.5938 0.74219 5.3281 0.84766 7.9688 0.3125 0.35938-0.078124 0.63672-0.35937 0.70703-0.71875 0.070313-0.35937-0.082031-0.72266-0.38672-0.92969z"/>
  <path d="m19.648 121.38c0 0.52344 0.40234 0.96094 0.92578 1l-0.12109-4.3516c-0.44922 0.67969-0.70703 1.4688-0.74219 2.2812z"/>
  <path d="m30.641 121.5s-2.2656-1.4297-2.2695-1.4414l-4.2383-2.6953h-2.6914l0.14453 5.2695 1.0859 0.29688c2.5039 0.67187 5.1328 0.75 7.6719 0.23047 0.35547-0.085937 0.62891-0.375 0.69141-0.73438s-0.089844-0.72266-0.39453-0.92578z"/>
  <path d="m22.531 29.227c-0.33984 1.4961-0.43359 3.0391-0.27734 4.5703l3.1992-3.8594z"/>
  <path d="m23.898 116.36c0.76562-2.5469 5.1445-17.047 6.7031-20.5h0.003907c-0.13672 0.17578-0.37109 0.23828-0.57812 0.15625-0.20312-0.082031-0.33203-0.28906-0.3125-0.50781 0.19922-1.6992-1.0312-3.3711-1.0391-3.3867-0.17188-0.22656-0.12891-0.55078 0.097657-0.72656 0.23047-0.17188 0.55469-0.125 0.72656 0.10156 0.050781 0.058594 1.5 2.0859 1.2148 4.1445 0.058594-0.125 0.11328-0.23438 0.16406-0.32031 0.73828-2.0312 1.1641-4.1641 1.2695-6.3242l-0.53516-12.406c-2.8281-1.2461-6.125-0.5-9.0352 0.074219v0.003906c0.94531 4.9141 2.1758 9.7695 3.6836 14.543 0.03125 0.10547 0.03125 0.21484 0 0.32031-0.03125 0.085938-3 8.5664-4 13.32-0.53906 3.0938-0.84375 6.2227-0.91797 9.3594l-2.1641-79.039 2.6719-7.1445 4.6211 1.125h-0.003906c0.16797 0.039062 0.30078 0.16406 0.35547 0.32812 0.054687 0.16406 0.019531 0.34375-0.089844 0.47656l-4.7031 5.6758c-0.38672 0.25-3.2266 4.5312-0.32812 10.863 5.5781 0.31641 5.7617-3.3047 3.8789-7.2812l-0.30469 0.40625c0.26172 0.70312 0.82031 2.5352 0.23047 3.6055h-0.003906c-0.13672 0.24219-0.44531 0.32422-0.6875 0.1875-0.24219-0.13672-0.32422-0.44531-0.1875-0.6875 0.25-0.45312 0.12109-1.3594-0.09375-2.1445-0.17578 0.17187-0.44922 0.19141-0.64453 0.042968-0.19922-0.14453-0.26172-0.41016-0.15234-0.62891 0 0 0.21484-0.28906 0.57422-0.76172 0.5-0.66016 1.0781-1.4453 1.6133-2.1367 1.1133-1.5 2.625-3.4219 3.4648-4.5352l0.003906 0.003906c0.60156-1.0547 0.90625-2.2539 0.88672-3.4688v-0.16406l-5.7812-2.8164h-3.1484c-0.17969 0-0.33984-0.09375-0.42969-0.24609-0.26562-0.48438-0.61328-0.92188-1.0273-1.2891-1.0586 0.089843-2.7891 0.43359-2.7539 1.6445h-2.9258c-0.17578 0-0.33984 0.09375-0.42969 0.24609-0.089844 0.15234-0.089844 0.34375 0 0.5l4.4062 8.25 2.2617 82.773c0.15625-0.23438 0.33594-0.45312 0.53516-0.64844h0.44922l-0.03125-1zm-3.3984-88.023c0-0.15234 0.070312-0.30078 0.19141-0.39453 0.039063-0.03125 0.082032-0.054687 0.12891-0.074218l-0.39453 1.0547v-0.035156c0.046875-0.17969 0.074219-0.36328 0.074219-0.55078zm-3.3008-1.1094c0.19531 1.1211 0.5 2.6211 1.5 2.7109 1-0.078125 1.4492-0.39062 1.6562-0.79688l-1.7695 4.7305-3.5352-6.6445z"/>
  <path d="m103.5 115 2.1133-0.054688 5.7812-21c0.058594-1.2266 0.5-12.941-0.92969-17.637-1.707-0.30469-3.4648-0.18359-5.1133 0.34766 0 0.058594 0.53125 12.32 0.5 12.387 0.074219 0.5-0.62891 5.1992-1.3438 6.6094zm5.7148-23.574c0.074218 0.066407 1.8203 1.5898 1.8203 3.5547 0 0.27734-0.22266 0.5-0.5 0.5s-0.5-0.22266-0.5-0.5c0-1.5-1.4531-2.7852-1.4688-2.7969-0.21094-0.17969-0.23828-0.49609-0.058594-0.70703 0.17969-0.21094 0.49609-0.23437 0.70703-0.054687z"/>
  <path d="m99.172 38.703c2.2344 4.5898 1.6445 8.9219-4.3516 8.8086v0.003906c0.66016 1.7539 1.1641 3.5664 1.5 5.4102h10.828c0.84375-0.44922 1.5625-1.1016 2.082-1.9023 1.6641-2.5312-1-5.3008-2.7656-7.4336-2.5664 1.9102-5.9648-3.0586-7.293-4.8867z"/>
  <path d="m103.37 121.5s-2.2695-1.4297-2.2695-1.4414l-4.2461-2.6953h-2.7734l-0.039062 5.1992 1.3594 0.36328-0.003906 0.003907c2.5039 0.67187 5.1289 0.75 7.668 0.23047 0.35547-0.082031 0.62891-0.37109 0.69531-0.73047 0.066406-0.35938-0.085938-0.72656-0.39062-0.92969z"/>
  <path d="m109.61 52.219c-0.52344 0.60156-1.1406 1.1094-1.832 1.5l-0.10547 2.2617h0.003906c0.26953 0.55469 0.60547 1.0781 1 1.5586 0.17969-0.39453 0.38672-0.77734 0.61328-1.1484 0.14844-0.23438 0.45703-0.30469 0.69141-0.15625 0.23047 0.14844 0.30078 0.45703 0.15234 0.69141-0.31641 0.52734-0.59375 1.0781-0.82812 1.6445-0.46484 1.0664-1 2.4297-1.5508 4.0586 0.24609 0.80469 0.58594 1.9609 1 3.3047 0.90625-1.8633 2.5859-5.5391 2.7891-7.4414 0.20703-1.8984-1.2383-4.9258-1.9336-6.2734z"/>
  <path d="m105.09 70.539 0.21484 5.0781v0.003906c1.5898-0.46875 3.2617-0.58984 4.9062-0.35938-0.72656-3.0352-2.4141-8.9688-3.4688-12.5h-0.003907v-0.046875l-0.19922-0.64844h-10.324c-0.17578 1.0234-0.41016 2.0352-0.70312 3.0352-0.73828 2.2656-1.3086 5.8398-0.38672 10.574 2.9766-0.63672 6.2266-1.2148 9.1758-0.19922l-0.21094-4.8438-2.5-2.1211c-0.21094-0.17969-0.23438-0.49609-0.054688-0.70703 0.17969-0.21094 0.49609-0.23438 0.70312-0.054688l2.2266 1.8867 1.1094-1.7695v-0.003907c0.15625-0.21094 0.44922-0.26562 0.67188-0.125 0.21875 0.13672 0.29688 0.42578 0.17578 0.65625z"/>
  <path d="m96.344 61.086h10.078l0.13672-2.8438v-0.003907c-0.28516-1.1875-0.73828-2.332-1.3477-3.3945-0.15625-0.22656-0.10156-0.53516 0.125-0.69531 0.67969-0.32813 0.80859 0.28906 1.3516 1.3984l0.074219-1.625-10.262 0.003906c0.23047 2.3633 0.1875 4.75-0.12891 7.1055 0 0-0.027344 0.039062-0.027344 0.054688zm5.5938-6.6641h0.003906c0.18359-0.18359 0.47656-0.19141 0.67578-0.023437 0.19531 0.16797 0.23047 0.46094 0.078124 0.67187 0 0.03125-1.0547 1.3359-1.3008 5.0391-0.015625 0.27734-0.25781 0.48438-0.53125 0.46875-0.27734-0.019531-0.48438-0.25781-0.46875-0.53125 0.27734-4.1328 1.4961-5.5469 1.5469-5.625z"/>
  <path d="m112.86 120.08-7-4.1445-2.7148 0.070312c-0.73828 0.78125-1.1758 1.7969-1.2227 2.8711v0.5l2 1.2734c0.28516 0.19531 0.51953 0.45703 0.67969 0.76562 2.5898 0.74609 5.3242 0.85156 7.9688 0.3125 0.35156-0.085937 0.62109-0.37109 0.68359-0.73047 0.0625-0.35547-0.089844-0.71484-0.39453-0.91797z"/>
  <path d="m96.629 116.36c0.76562-2.5469 5.1367-17 6.6914-20.5-0.14062 0.16797-0.37109 0.22266-0.57422 0.14062-0.19922-0.082031-0.32422-0.28516-0.30469-0.50391 0.19922-1.6992-1-3.3711-1.0391-3.3867h-0.003906c-0.16406-0.21875-0.12109-0.53125 0.10156-0.69922 0.22266-0.16406 0.53516-0.12109 0.69922 0.10156 0.054687 0.070313 1.5 2.0352 1.2266 4.1211 0.054688-0.10938 0.10547-0.21094 0.14844-0.28906v-0.003906c0.74609-2.0195 1.1836-4.1406 1.2969-6.2891 0-0.16016-0.5-12.234-0.52344-12.41-2.8281-1.2383-6.1289-0.5-9.0469 0.074219 0.95312 4.9062 2.1914 9.75 3.6992 14.512 0.039062 0.10156 0.039062 0.21484 0 0.32031-0.023438 0.085938-3 8.5664-4 13.32-0.5 2.793-0.79297 5.6211-0.88672 8.457l0.53125-66.828c6.6758 0.26172 4.7852-5.2695 3.3086-8-0.25-0.40625 0.22656-0.73828 0.46484-1h0.003906c-0.51562-1.2422-0.82812-2.5586-0.92188-3.8984l0.69141-22.84c-0.003906-0.25 0.17578-0.46484 0.42188-0.5 0.24609-0.30078 0.47656-1.3164 0.60547-2.3594l-3.6836 3.7617-1.7031 23.5c0.10547-0.13672 0.17188-0.21094 0.17969-0.21875v-0.003906c0.1875-0.18359 0.48828-0.1875 0.68359-0.007812 0.19141 0.17578 0.21484 0.47656 0.050782 0.67969-0.49609 0.625-0.875 1.3359-1.1094 2.0977-0.53516 1.3008-0.73828 3.8438 0.039062 6.6289l-0.58984 73.789c0.17578-0.29688 0.39062-0.57422 0.63281-0.82031h0.37109v-1zm1.2695-77c0.10937 0.26562 1.0312 2.6055 0.32812 3.875h0.003907c-0.13672 0.24219-0.44531 0.32812-0.6875 0.1875-0.24219-0.13672-0.32422-0.44531-0.1875-0.6875 0.35547-0.64453-0.046875-2.1914-0.37891-3-0.10937-0.25391 0.011719-0.54688 0.26953-0.65234 0.25391-0.10547 0.54688 0.011718 0.65234 0.26953z"/>
  <path d="m92.379 121.37c-0.023437 0.42578 0.25 0.80859 0.66016 0.92578l0.035157-4.1055c-0.38672 0.63672-0.60547 1.3594-0.64453 2.1055z"/>
  <path d="m101.5 28.379c-0.16016 0.28516-0.33594 0.55469-0.70312 0.45312-1.3359-0.46484-1.2031 1-1.0391 1.8203l-0.003906 0.003906c0.039063 0.15234 0.003906 0.31641-0.097656 0.4375l-1.1055 1.3398-0.050781 1.1602c0.125 1.1562 0.46875 3.1055 1 3.7461 0.92969 1.4141 4.4648 6.7383 6.3594 5.4766-2.6758-3.2109-4.3438-5-4.3594-5-0.15234-0.16406-0.17969-0.41016-0.066406-0.60156l0.5-0.82812c-0.75391-0.58203-1.457-1.2383-2.0898-1.9531-0.18359-0.20703-0.16406-0.52344 0.042969-0.70703 0.20703-0.18359 0.52344-0.16406 0.70703 0.042969 0.65625 0.76562 1.4102 1.4414 2.2461 2 1.5352 0.53516 3.2148 0.43359 3.3008-2.0781 0.23828-2.0938 0.53125-4.6836 0.078125-6.5938-1.6719-0.59766-3.7188-0.23828-4.7188 1.2812z"/>
  <path d="m98.746 25.406-0.16406 5.3984 0.13672-0.16406c-0.30469-1.3281 0.14844-3.2109 1.9648-2.8516h-0.003906c1.1758-1.5859 3.1875-2.3086 5.1055-1.8398-1.2852-2.7188-6.2852-1.125-7.0391-0.54297z"/>
  <path d="m84.211 19.234h1.3828v11.402h1.9844v-11.402h1.3906l-2.3789-4.7656z"/>
  <path d="m85.594 32.566h1.9844v3.9844h-1.9844z"/>
  <path d="m102.81 3.8086c-0.074219-0.18359-0.25781-0.30859-0.45703-0.30859h-4.9375c-0.13281-0.003906-0.26172 0.042969-0.35937 0.13281-0.097657 0.089844-0.15625 0.21484-0.16016 0.34766-0.011719 0.27734 0.20312 0.50781 0.48047 0.51953-2.9102 0.10547-2.6094 4.1055-2.0742 6l4.0234-4.1094c0.039062-0.39062-0.015625-0.78906-0.15234-1.1562-0.41406-0.44531-0.98438-0.71094-1.5938-0.73438h3.5781l-1.8359 1.875h0.003907c-0.007813 0.51562-0.046875 1.0273-0.10938 1.5391l3.5-3.5664v0.003906c0.13672-0.14844 0.17188-0.35937 0.09375-0.54297z"/>
 </g>
</svg>
