<?xml version="1.0" encoding="UTF-8"?>
<svg width="128pt" height="128pt" version="1.1" viewBox="0 0 128 128" xmlns="http://www.w3.org/2000/svg">
 <g>
  <path d="m81.828 119.02v-29.242c0-1.1562-0.38672-2.0508-0.76953-2.8203-1.5391-6.1602-5.3867-12.188-9.2344-17.188 1.1562-6.4141 1.2812-14.363 1.2812-18.469l4.1055 3.7188s0.38672 0.38672 0.76953 0.51172l15.391 7.3125c2.0508 0.89844 4.7461 0.38672 5.7734-1.668 1.2812-2.3086 0.38672-5.0039-1.9258-6.1562l-7.4375-3.5938-7.1836-3.9766-8.207-10.516c-0.12891-0.38672-1.2812-2.0508-2.0508-2.5664-3.7188-3.9766-13.469-3.7188-17.441-0.51172l-15.52 11.672c-0.12891 0.12891-0.89844 0.76953-1.1562 0.89844-0.51172 0.51172-0.89844 1.668-0.89844 1.9258l-4.4883 20.777c-0.51172 2.3086 0.89844 4.875 3.207 5.2578 0.38672 0.12891 0.76953 0.12891 0.89844 0.12891 2.0508 0 3.9766-1.5391 4.3594-3.3359l2.0508-9.875c0.89844-3.207 1.668-6.4141 2.3086-8.9766l6.0273-4.2344c0.38672-0.12891 0.89844 0.12891 0.89844 0.51172l-2.5664 17.059c-0.38672 2.9492-0.51172 5.7734-0.38672 8.7227 0.38672 6.543 0.89844 18.086 0.89844 18.086l-17.184 19.875c-2.3086 2.5664-2.3086 6.543 0.38672 8.8516 2.5664 2.4375 6.543 2.3086 8.9766-0.51172l19.109-21.934c0.12891-0.12891 0.38672-0.38672 0.38672-0.51172 0.76953-0.76953 1.2812-1.5391 1.2812-2.5664 0.51172-3.3359 1.1562-7.3125 1.5391-11.801l4.3594 7.6953v27.703c0 3.5898 2.8203 6.4141 6.4141 6.1562 3.4609 0 6.0273-2.9492 6.0273-6.4102z"/>
  <path d="m78.109 55.535c0.12891 0 0.12891 0.12891 0.38672 0.12891z"/>
  <path d="m76.953 15.391c0 7.0117-5.6836 12.699-12.695 12.699-7.0156 0-12.699-5.6875-12.699-12.699s5.6836-12.695 12.699-12.695c7.0117 0 12.695 5.6836 12.695 12.695"/>
 </g>
</svg>
