<?xml version="1.0" encoding="UTF-8"?>
<svg width="128pt" height="128pt" version="1.1" viewBox="0 0 128 128" xmlns="http://www.w3.org/2000/svg">
 <path d="m115.53 35.73c-0.68359-1.0078-1.3945-2.0508-2.2539-2.9883-1.9414-2.1211-3.875-4.2461-5.8086-6.375l-3.0391-3.3438c-0.51172-0.5625-0.80469-1.125-0.92188-1.7734-0.17969-0.98438-0.44141-2.0898-1.3438-2.793-0.96484-0.75-1.3633-1.8047-1.2539-3.3125 0.16797-2.3672 0.5-4.293 1.5703-6l0.11328-0.17188c0.26562-0.37891 0.75-1.0898 0.24219-1.875-0.39844-0.61719-1.1328-0.76953-1.9453-0.67188-0.097656 0.011719-0.19141 0.023438-0.28906 0.03125-0.64453 0.039063-1.1719 0.33203-1.6602 0.60156-1.5781 0.87891-2.6484 2.168-3.1836 3.8359-0.5625 1.7461-1.2344 3.0664-2.1133 4.1523-0.58594 0.72656-1.168 1.5938-1.0117 2.5156 0.15625 0.93359 1 1.5703 1.8828 2.1211 0.71875 0.44141 0.79297 0.61328 0.79688 0.64062 0 0.03125-0.03125 0.22266-0.65234 0.85938-0.14453 0.14844-0.29297 0.30078-0.46484 0.41797l-0.29297 0.20313c-2.457 1.707-5 3.4688-7.7344 4.7773-0.39453 0.1875-0.80078 0.36719-1.2031 0.54297-1.418 0.62109-2.8906 1.2617-4.0312 2.4414-1.543 1.5859-3.3359 2.7266-5.2422 3.9375l-0.875 0.55859c-1.7852 1.1484-3.5977 1.9023-5.5273 2.2969-1.9258 0.39453-3.4766 1.1016-4.7305 2.1602-1.3281 1.1211-2.7852 2.1367-4.1914 3.1211l-1.1484 0.80469c-0.17969 0.12891-0.37109 0.25391-0.55469 0.33594l0.078126-0.26562c0.19531-0.68359 0.36328-1.2695 0.89453-1.5586 0.67969-0.36328 1.1406-0.98828 1.3047-1.7617 0.17969-0.84766-0.039062-1.7695-0.58203-2.4648l-0.14844-0.1875c-0.89063-1.1445-1.4258-1.832-2.3984-1.832-0.38281 0-0.80469 0.11328-1.4062 0.37109-0.12109 0.050781-0.24219 0.11328-0.35547 0.17188-0.17578 0.089844-0.39453 0.19922-0.5 0.19922-0.039062 0-0.10938-0.082031-0.12109-0.10156-0.80469-0.96875-1.9258-1.3984-3.0156-1.7227-2.4531-0.72266-4.6797-0.29297-6.3633 1.2344-0.93359 0.85156-1.8125 1.9102-2.7656 3.3359-0.38281 0.56641-0.77734 1.3516-0.46875 2.3711 0.20312 0.66797 0.45312 1.3281 0.69922 1.9883 0.48047 1.2773 0.92969 2.4805 1.0938 3.7656 0.070313 0.55469 0.61328 0.64844 1.1367 0.73828 0.089844 0.015625 0.17188 0.027344 0.12891 0.003906 0.48438 0.26562 0.68359 0.64453 0.95703 1.1719 0.17969 0.34375 0.37891 0.73047 0.69141 1.1094 0.40625 0.49609 0.94922 0.76172 1.5664 0.77734-1.3711 0.38672-2.6367 0.89844-3.7812 1.3945-0.80859 0.35156-1.6562 0.54297-2.5156 0.5625l-1.1484 0.03125c-0.74219 0.023438-1.4883 0.042969-2.2305 0.042969-1.5273 0-2.6953-0.09375-3.793-0.30469-1.6133-0.30859-3.2969-0.25-5.2969 0.19531l-0.44531 0.10156c-0.76953 0.17187-1.5352 0.34375-2.3086 0.48047-2.6797 0.48047-5.4766 0.61328-8.4141 0.44531l-0.21875-0.007813c-0.39453 0-0.75781 0.054688-1.1094 0.11328l-0.41406 0.0625c-1.0781 0.13672-2.1602 0.32812-3.2461 0.51562-1.9922 0.34766-4.0469 0.71094-6.0625 0.71094-0.19141 0-0.38281-0.003906-0.62891-0.011719l-0.14844-0.003906c-0.61328 0-0.90625 0.41406-0.92969 0.82812-0.027344 0.45312 0.25 0.96875 0.69922 1.1406 1.8125 1.4258 3.9727 1.4922 6.0664 1.5586 0.62891 0.019531 1.2539 0.039062 1.8672 0.097656 0.93359 0.089844 1.7734-0.089844 2.4297-0.54688 0.83984-0.57812 1.8125-0.75 3.1211-0.52734 3.2383 0.54297 6.4453 0.61719 9.4219 0.61719 0.83594 0 1.668-0.007813 2.5039-0.011719l1.6914-0.015625c0.45703-0.003906 0.91406-0.011719 1.3711-0.011719 1.1406 0 2.0039 0.035157 2.8984 0.11719 2.457 0.23047 4.9961 0.46875 7.5117 0.46875 2.3125 0 4.3672-0.20312 6.2891-0.61719 2.3203-0.5 4.1641 0.20312 5.4492 2.1055 1.7383 2.5742 4.2578 3.707 7.1953 3.2344 1.4062-0.22656 2.8164-0.0625 4.3633 0.51562 0.82422 0.30859 1.918 0.58203 2.8672 0.34766 0.95703-0.23828 2-0.35547 3.1953-0.35547 1.1602 0 2.3516 0.10937 3.5039 0.21094 1.1602 0.10547 2.3633 0.21484 3.5586 0.21875 0.47266 0 0.75391 0.12891 0.875 0.79688 0.30469 1.6914 0.55078 3.2188 0.51562 4.7695-0.054688 2.6484 0.13281 5.3906 0.5625 8.1523 0.60547 3.8906 0.79688 6.875 0.61719 9.6797-0.085937 1.3281 0.0625 2.4766 0.44922 3.5039 0.21094 0.5625 0.24219 1.2227 0.085937 2.0195-0.62891 3.2617-0.89062 6.5938-1.1406 9.8203-0.097657 1.2539-0.19531 2.5039-0.3125 3.7539-0.074219 0.79688-0.097657 1.4844-0.11719 2.1172-0.054688 1.5898-0.09375 2.7422-0.96094 4.4844-0.54297 1.0859-0.98828 1.5234-1.6094 1.9688-0.57422 0.32031-1.0312 0.60938-1.4375 0.85938-0.77734 0.48828-1.2969 0.8125-2.1406 0.99609-0.019531 0.007812-1.7344 0.67969-3.0156 1.082-0.97656 0.30469-1.6758 0.95312-1.8242 1.6875-0.070313 0.35547-0.070313 1.0586 0.73438 1.7383 0.29688 0.23828 0.78516 0.34375 1.6875 0.34375 1.5938 0 4.1797-0.33984 6.4922-0.66797 0.54297-0.078125 1.1641 0.0625 1.8438 0.20703 0.85547 0.18359 1.7695 0.37109 2.6484 0.21484 2.7656-0.48047 2.7656-2.3906 2.7656-3.5312 0-1.0664-0.30859-2.0898-0.43359-2.4648 0.42578-4.4414 1.3984-8.543 2.8125-11.867 1.3867-3.2539 1.8672-6.8047 1.4727-10.855-0.17188-1.7344-0.10547-3.1758 0.20703-4.5312 0.085937-0.38281 0.13281-0.77734 0.17969-1.168l0.027344-0.22656c0.13281-1.1055 0.23047-2.2148 0.32812-3.3281 0.16406-1.8711 0.33594-3.8086 0.68359-5.6836 0.84766-4.6016 1.2969-8.1484 1.4492-11.496 0.070313-1.4805 0.24219-2.9883 0.40625-4.4492 0.0625-0.53516 0.12109-1.0742 0.17969-1.6094 0.097656-0.91406 0.19922-1.543 0.75391-1.9453 1.3438-0.97656 2.5898-2.082 3.7969-3.1562 0.67969-0.60547 1.3594-1.207 2.0547-1.7891 4.793-4 8.6914-7.5078 12.145-11.633 1.6602-1.9961 1.7773-3.7852 0.34766-5.8906zm-63.539 20.551c-1.8281 0.39453-3.793 0.58594-6.0117 0.58594-2.4531 0-4.9609-0.23438-7.4766-0.46875-0.84766-0.078126-1.75-0.11328-2.9297-0.11328-0.46094 0-0.92578 0.003906-1.3867 0.011719l-1.6875 0.015625c-0.83203 0.007812-1.6641 0.011719-2.4922 0.011719-2.9219 0-6.0625-0.074219-9.2109-0.59766-1.6562-0.27344-2.9414-0.035156-4.0625 0.73828-0.41016 0.28125-0.95312 0.38281-1.5742 0.32422-0.64062-0.0625-1.293-0.082031-1.9492-0.10547-1.75-0.054688-3.4141-0.10547-4.8008-0.93359 2.0273-0.03125 4.0391-0.38672 5.9922-0.72656 1.0625-0.1875 2.125-0.375 3.1836-0.50781 0.15234-0.019531 0.30078-0.042969 0.45312-0.066406 0.30078-0.046875 0.60156-0.097657 0.91016-0.097657l0.14453 0.003907c3.0391 0.17578 5.9336 0.035156 8.7148-0.46094 0.79297-0.14062 1.5781-0.31641 2.3633-0.49219l0.44141-0.097656c1.8359-0.41016 3.3281-0.46484 4.7773-0.1875 1.1758 0.22656 2.4219 0.32422 4.0312 0.32422 0.75391 0 1.5117-0.023437 2.2695-0.042968l1.1406-0.03125c1.0273-0.023438 2.0391-0.24609 3.0039-0.66797 1.9492-0.85156 4.2812-1.7422 6.8516-1.9062 0.34375-0.023438 0.77344-0.046875 1.1523-0.24219 0.09375-0.046875 0.20703-0.13281 0.31641-0.23438 0.92188 1.6055 1.832 4.875 2.2305 6.4258-1.2695-0.65234-2.7422-0.82031-4.3945-0.46094zm-1.5195-6.5c0.015625-0.007812 0.03125-0.015625 0.042969-0.023438l0.41406-0.21094c0.47656-0.24609 0.81641-0.42188 1.3594-0.51562 0.10547-0.015625 0.20703-0.027344 0.30469-0.027344 0.43359 0 0.67188 0.14844 0.69531 0.16406 0.011719 0.1875-0.027343 0.21094-0.054687 0.22266-0.13672 0.070313-0.41797 0.089844-0.69922 0.10547-0.70312 0.050781-1.3906 0.15234-2.0625 0.28516zm8.8164 0.39844c-1.5312 1.3125-3.9062 0.078124-4.7812-0.45703 0.054688-0.17969 0.085938-0.37891 0.070313-0.62891-0.058594-0.92969-1.1758-1.5469-2.5-1.3281-0.74219 0.125-1.2266 0.375-1.7383 0.64062l-0.39062 0.19531c-0.64062 0.31641-1.1016 0.32031-1.4336-0.082031-0.22656-0.27344-0.37891-0.57031-0.54297-0.88672-0.30469-0.58984-0.65234-1.2578-1.4844-1.7109-0.13281-0.074219-0.28125-0.097656-0.52734-0.14062-0.042969-0.007812-0.089844-0.015625-0.13672-0.023438-0.21484-1.2852-0.66797-2.4922-1.1094-3.6641-0.082032-0.21875-0.15234-0.4375-0.23047-0.65625 0.64062-0.78906 1.9062-2.0625 3.5-2.1523 2.3164-0.13672 3.4062 2.9219 3.4062 2.9219s0.007813-2.3828 0.82422-2.5156c0.81641-0.12891 1.4492 0.13672 1.9453 0.95312 0.49609 0.81641 1.0742 2.8594 2.0117 2.9961 0.42188 0.0625 0.83594-0.12891 1.1641-0.35156 0.039062 0.18359 0.10937 0.32422 0.18359 0.42578 0.30469 0.41016 0.86328 0.52734 1.5156 0.29297 0.011719-0.003906 0.019532-0.011718 0.03125-0.015624 0.55469 1.4023 1.7344 4.8906 0.22266 6.1875zm21.242 6.4023c-0.19531 2.4766-0.19922 4.7773-0.1875 5.8516-0.46484-0.035156-0.92969-0.074219-1.3867-0.11328-1.1797-0.10547-2.4023-0.21875-3.6211-0.21875-1.3008 0-2.4453 0.12891-3.5078 0.39063-0.64453 0.16406-1.4219-0.050782-2.1094-0.30859-1.3086-0.48438-2.5391-0.71094-3.7539-0.6875 0.074218-0.98047 0.49219-3.0508 2.4766-6.0039 2.1914-3.2656 4.1328-6.2656 4.9023-7.4609 1.2305 1.1992 2.5039 2.4336 4.082 3.3594 0.875 0.51172 1.6797 0.76172 2.4727 0.76172 0.13672 0 0.26953-0.019532 0.40234-0.035156 0.17969 0.76562 0.40625 2.2422 0.23047 4.4648zm14.035 9.5508c-0.15234 3.2852-0.59375 6.7773-1.4336 11.32-0.35547 1.9375-0.52734 3.9023-0.69531 5.8047-0.097656 1.0977-0.19141 2.1914-0.32422 3.2852l-0.027343 0.23438c-0.039063 0.34375-0.078126 0.69141-0.15625 1.0234-0.34375 1.4961-0.41797 3.0664-0.23828 4.9453 0.375 3.832-0.074218 7.1797-1.375 10.227-1.4805 3.4805-2.4922 7.7656-2.9258 12.391l-0.015625 0.14844 0.054688 0.14062c0.003906 0.011718 0.40234 1.082 0.40234 2.1562 0 1.2578-0.078125 1.9805-1.6992 2.2656-0.67187 0.11719-1.4219-0.050781-2.1602-0.20703-0.76562-0.16406-1.5742-0.32813-2.293-0.22266-2.2695 0.32422-4.7969 0.65625-6.3125 0.65625-0.60938 0-0.83203-0.058593-0.86328-0.058593-0.003906 0-0.003906 0-0.003906 0.003906-0.12891-0.10938-0.33203-0.3125-0.29297-0.49219 0.042969-0.21484 0.39062-0.53906 0.94531-0.71094 1.3203-0.41406 3.0195-1.082 2.9961-1.082 0.96875-0.19922 1.625-0.61328 2.4609-1.1367 0.38672-0.24219 0.82812-0.51953 1.4336-0.85938 0.82031-0.57422 1.4219-1.168 2.0781-2.4805 0.99609-1.9961 1.0391-3.3281 1.0938-5.0156 0.019531-0.60938 0.042968-1.2695 0.11719-2.0391 0.11719-1.2578 0.21484-2.5195 0.3125-3.7773 0.24609-3.1875 0.50391-6.4844 1.1211-9.6758 0.19922-1.0352 0.15234-1.9258-0.14453-2.7148-0.32422-0.86719-0.44141-1.8086-0.36719-2.9688 0.1875-2.9062-0.007812-5.9766-0.63281-9.9609-0.41797-2.6875-0.60156-5.3555-0.54688-7.9258 0.019531-0.81641-0.039063-1.6211-0.13281-2.4297 0.69531-0.58594 2.1406-1.4805 4.9805-2.2344 2.7109-0.71875 4.1211-0.96484 4.8281-1.0508-0.078125 0.81641-0.14453 1.6289-0.18359 2.4414zm2.6602-20.387c-1.1055 0.875-2.0742 1.3008-3.1211 1.3711l-0.87891-0.13672c-0.69141-0.10547-1.3945-0.21484-2.0898-0.35156-2.4531-0.48047-4.707 0.054688-6.707 1.5859-0.54688 0.41797-1.1094 0.8125-1.6719 1.2109-0.37109 0.26172-0.73828 0.51953-1.1016 0.78516-1.1836 0.85937-2.2109 0.875-3.582 0.070312-1.4609-0.85547-2.6328-2-3.8789-3.2109-0.63672-0.61719-1.293-1.2578-1.9844-1.8516-0.1875-0.16016-0.34766-0.42969-0.51172-0.71875l-0.12891-0.21875c-0.097656-0.16016-0.10937-0.25781-0.097656-0.28516 0.007813-0.027344 0.0625-0.097656 0.21484-0.17578 2.3984-1.2266 4.4141-2.9688 6.3633-4.6484 0.96094-0.83203 1.957-1.6914 2.9805-2.4688 1.957-1.4883 3.6016-2.7148 5.457-3.7617 1.6719-0.94531 3.1328-2.1719 4.5508-3.3594 0.8125-0.68359 1.6562-1.3906 2.5156-2.0234 0.61328-0.44922 1.2266-0.90625 1.8086-1.3906 0.85547-0.71094 1.9453-0.73828 3.1445-0.76953l0.019532-0.64453v0.64453c0.27734 0 0.43359 0.1875 0.73047 0.71875 0.28516 0.51172 0.57813 1.0195 0.875 1.5273 0.6875 1.1875 1.3984 2.418 1.9727 3.668 1.1562 2.5273 2.8711 4.5664 5.2461 6.2422 0.35156 0.24609 0.52344 0.39062 0.60547 0.47656-0.070312 0.085938-0.21484 0.23438-0.51172 0.48828-0.67187 0.57812-1.3359 1.1328-2.0469 1.5-2.7617 1.4414-5.2031 3.375-7.5586 5.2461zm16.973-4.9648c-3.3438 3.9961-8.1367 8.1445-12.789 12.035-0.44531-0.45703-1.0703-1.3594-1.9141-3.3516-0.59766-1.4062-0.60938-2.7344-0.87891-3.2734 2.1523-1.7031 4.9102-3.7383 7.3711-5.0234 0.82812-0.43359 1.5547-1.0352 2.2891-1.668 0.58594-0.50391 1.0312-0.9375 1.0039-1.5312-0.027344-0.59766-0.53516-1-1.1953-1.4648-2.1836-1.5391-3.7617-3.4102-4.8164-5.7227-0.59766-1.3086-1.3242-2.5625-2.0312-3.7773-0.28906-0.5-0.57812-1.0039-0.86328-1.5117-0.28906-0.51563-0.77344-1.3828-1.8555-1.3828h-0.097656c-1.2578 0.03125-2.6875 0.066406-3.8906 1.0664-0.5625 0.46875-1.1523 0.91016-1.7422 1.3438-0.89453 0.65625-1.7539 1.3789-2.582 2.0742-1.3711 1.1523-2.7891 2.3398-4.3555 3.2266-1.9219 1.0859-3.6016 2.3359-5.6016 3.8555-1.0508 0.80078-2.0625 1.6758-3.043 2.5195-1.8906 1.6328-3.8477 3.3203-6.1055 4.4805-0.57422 0.29297-0.78906 0.69141-0.87109 0.97266-0.019531 0.070312-0.035157 0.15625-0.042969 0.25-0.66797 0.35937-1.9609 0.83984-4.0898 0.83984-2.4727 0-4.5625-1.0742-5.5312-1.6641l0.53516-0.375c1.4336-1 2.9141-2.0352 4.2852-3.1914 1.0898-0.91797 2.4492-1.5352 4.1602-1.8867 2.0898-0.42578 4.043-1.2383 5.9648-2.4766l0.87109-0.55469c1.8828-1.1953 3.8242-2.4336 5.4727-4.125 0.96484-0.99609 2.2578-1.5586 3.625-2.1562 0.41797-0.18359 0.83594-0.36719 1.2461-0.5625 2.832-1.3516 5.4141-3.1484 7.9141-4.8828l0.29297-0.20312c0.23438-0.16406 0.44922-0.36719 0.64844-0.57422 0.68359-0.69922 1.0938-1.2617 1.0117-1.9141-0.085938-0.71875-0.76953-1.1914-1.3984-1.582-0.82812-0.51172-1.2383-0.90625-1.2969-1.2383-0.050782-0.32031 0.1875-0.80469 0.74219-1.4883 0.98438-1.2148 1.7266-2.668 2.3398-4.5703 0.4375-1.3633 1.2812-2.3789 2.6094-3.1133 0.37891-0.21094 0.73828-0.41016 1.0938-0.42969 0.11719-0.007812 0.23828-0.023438 0.35547-0.039062 0.13672-0.015626 0.27344-0.035157 0.41016-0.035157 0.21875 0 0.25391 0.054688 0.3125 0.14844 0.003906 0.078125-0.15234 0.30078-0.23438 0.42188l-0.14844 0.22266c-1.2109 1.9336-1.5781 4.0352-1.7656 6.5938-0.13672 1.9492 0.43359 3.3945 1.75 4.418 0.54297 0.42188 0.72266 1.2227 0.86719 2.0078 0.16016 0.88281 0.5625 1.6719 1.2383 2.4102l3.0391 3.3438c1.9336 2.1289 3.8711 4.2578 5.8164 6.3789 0.79688 0.86719 1.4766 1.8711 2.1836 2.9102 1.0664 1.5508 0.98438 2.7031-0.30859 4.25z" fill-rule="evenodd"/>
</svg>
